<svg xmlns="http://www.w3.org/2000/svg" width="256" height="256" fill="none" viewBox="0 0 256 256"><circle cx="128" cy="128" r="128" fill="#151515"/><path fill="#f6d4ab" d="m93.351 201.053 3.807-17.587c4.246-19.616-10.698-38.144-30.767-38.144H48.953c5.5 24.647 22.159 45.084 44.398 55.731M101.004 204.245A81.4 81.4 0 0 0 128.502 209c38.887 0 71.414-27.237 79.545-63.678h-53.198c-23.979 0-44.711 16.726-49.785 40.164zM209.431 137.171c.375-3.173.569-6.404.569-9.679 0-42.76-32.924-77.829-74.802-81.236l-11.422 52.772c-4.246 19.616 10.698 38.143 30.767 38.143zM126.916 46C82.636 46.844 47 83.006 47 127.493c0 3.275.193 6.505.569 9.679H66.09c23.979 0 44.711-16.726 49.784-40.164z"/></svg>