<svg xmlns="http://www.w3.org/2000/svg" width="256" height="256" fill="none" viewBox="0 0 256 256"><circle cx="128" cy="128" r="128" fill="#0096f7"/><path fill="#000" d="M171.87 127.688H84.841c-22.004 0-39.841 17.837-39.841 39.84s17.837 39.842 39.841 39.842h87.029zM83.969 48h87.029c22.003 0 39.84 17.837 39.84 39.84 0 22.005-17.837 39.842-39.84 39.842h-87.03z"/><path fill="#fff" d="M84.695 127.682c21.301 0 38.569-17.837 38.569-39.841S105.996 48 84.694 48c-21.3 0-38.569 17.837-38.569 39.841s17.268 39.841 38.57 39.841M171.149 207.37c-21.301 0-38.569-17.838-38.569-39.841 0-22.004 17.268-39.841 38.569-39.841s38.57 17.837 38.57 39.841c0 22.003-17.268 39.841-38.57 39.841"/></svg>