<svg xmlns="http://www.w3.org/2000/svg" width="256" height="256" fill="none" viewBox="0 0 256 256"><path fill="url(#a)" d="M0 128c0 70.692 57.308 128 128 128s128-57.308 128-128S198.692 0 128 0 0 57.308 0 128"/><path fill="#00bc84" d="M127.819 85.83c-24.252 0-46.527-8.327-64.217-22.226 13.9 17.69 22.226 39.965 22.226 64.216 0 24.252-8.31 46.527-22.226 64.217 17.69-13.9 39.965-22.226 64.217-22.226 24.25 0 46.526 8.31 64.216 22.226-13.9-17.69-22.226-39.965-22.226-64.217s8.31-46.526 22.226-64.216c-17.69 13.899-39.966 22.226-64.216 22.226"/><defs><radialGradient id="a" cx="0" cy="0" r="1" gradientTransform="rotate(225 394.389 163.361)scale(711.347)" gradientUnits="userSpaceOnUse"><stop stop-color="#00bc84"/><stop offset="1"/></radialGradient></defs></svg>