<svg xmlns="http://www.w3.org/2000/svg" width="256" height="256" fill="none" viewBox="0 0 256 256"><circle cx="128" cy="128" r="128" fill="#fe5a19"/><path fill="#111" fill-rule="evenodd" d="m53.48 191.956.07 12.579h69.117V53.584H53.55l-.07 12.58c31.267 0 56.607 25.34 56.607 56.606v12.579c0 31.267-25.34 56.607-56.607 56.607" clip-rule="evenodd"/><path fill="#111" fill-rule="evenodd" d="M53.48 129.06c0 19.407 7.324 37.102 19.359 50.478a54 54 0 0 0 5.563-3.257c-11.56-12.362-18.632-28.967-18.632-47.221 0-18.261 7.072-34.866 18.639-47.228a56 56 0 0 0-5.57-3.25C60.804 91.958 53.48 109.653 53.48 129.06M204.432 191.956l-.069 12.579h-69.117V53.584h69.117l.069 12.58c-31.266 0-56.607 25.34-56.607 56.606v12.579c0 31.267 25.341 56.607 56.607 56.607" clip-rule="evenodd"/><path fill="#111" fill-rule="evenodd" d="M204.432 129.06c0 19.407-7.324 37.102-19.358 50.478a54 54 0 0 1-5.563-3.257c11.559-12.362 18.631-28.967 18.631-47.221s-7.072-34.866-18.638-47.228a56 56 0 0 1 5.57-3.25c12.034 13.376 19.358 31.071 19.358 50.478" clip-rule="evenodd"/></svg>