<svg xmlns="http://www.w3.org/2000/svg" width="256" height="256" fill="none" viewBox="0 0 256 256"><circle cx="128" cy="128" r="128" fill="#37a5a0"/><path fill="#fff" d="M121.015 168.827v41.162c-10.169.173-19.799-1.644-29.086-5.282-17.097-6.7-30.539-17.899-40.444-33.324-19.93-31.035-14.95-70.999 7.493-97.17 23.282-27.15 61.061-35.694 94.656-21.296 35.871 15.372 49.708 48.41 49.267 74.834-.358.064-.739.194-1.12.194q-19.235.008-38.467-.017c-.386 0-.768-.143-1.153-.22l.031.041c-.132-1.141-.286-2.282-.39-3.425-.922-10.061-4.855-18.667-12.273-25.624-13.615-12.77-32.086-15.66-47.507-7.218-24.365 13.338-26.378 43.283-14.77 59.542 8.291 11.613 19.434 17.802 33.819 17.863l-.053-.061z"/><path fill="#fff" d="M162.161 127.706c-.034 5.562-.084 11.123-.097 16.686-.017 8.072-.004 16.144-.004 24.563h40.826v40.924h-40.814v-40.927h-2.592c-12.148 0-24.295.003-36.442-.004-.675 0-1.349-.081-2.022-.124l.053.061v-40.94h2.14c12.19 0 24.38.003 36.571-.01.803 0 1.608-.123 2.411-.189l-.032-.041z"/></svg>