<svg xmlns="http://www.w3.org/2000/svg" width="256" height="256" fill="none" viewBox="0 0 256 256"><circle cx="128" cy="128" r="128" fill="#023021"/><path fill="#fff" d="m216.783 106.894-42.044-33.627c-.791-.633-1.958-.069-1.958.944v69.754l44.002-35.192c.603-.485.603-1.4 0-1.879M80.497 73.265l-42.044 33.624a1.202 1.202 0 0 0 0 1.879l43.998 35.191v-69.75c0-1.013-1.167-1.568-1.957-.945zM126.871 179.488l-44.418-35.523v38.539c0 .663.534 1.207 1.206 1.207h87.942c.663 0 1.207-.535 1.207-1.207v-38.539l-44.419 35.523a1.21 1.21 0 0 1-1.508 0z"/></svg>