<svg xmlns="http://www.w3.org/2000/svg" width="256" height="256" fill="none" viewBox="0 0 256 256"><circle cx="128" cy="128" r="128" fill="#24344c"/><path fill="#f9bd29" d="M210.665 167q4.034 0 6.228-2.138 2.107-2.14 2.107-6.074l-.002-61.576q.001-3.935-2.105-6.074Q214.699 89 210.665 89H203v6.33h9.068v65.255H203V167zM45.335 167q-4.035 0-6.23-2.138Q37 162.722 37 158.788V97.212q0-3.935 2.106-6.074Q41.3 89 45.336 89H53v6.33h-9.068v65.255h9.067V167zM72.086 130.407 59 147.445V153h6.448l12.707-17.778q.474-.648.474-1.296t-.19-1.667a7.2 7.2 0 0 1-.284-1.944q0-1.112.379-1.389.474-.37 1.707-.463h1.517q1.232.093 1.707.463.38.278.38 1.389 0 .925-.285 1.944-.19 1.019-.19 1.667t.474 1.296L96.551 153H103v-5.555l-13.086-17.038c-.127-.185-.356-.32-.641-.412a3.3 3.3 0 0 0-.783-.143c-.213-.016-.537 0-.948 0s-.979-.031-1.422-.093q-.664-.092-1.043-.463-.474-.462-.474-1.296t.474-1.204q.379-.462 1.043-.555t1.422-.093h.956c.252 0 .561 0 .847-.093s.442-.277.569-.462L103 108.556V103h-6.45l-12.706 17.778q-.474.648-.474 1.296t.19 1.667q.285.926.284 1.944 0 1.112-.38 1.482-.473.277-1.706.37H80.24q-1.233-.093-1.707-.37-.38-.37-.38-1.482 0-1.018.285-1.944.19-1.019.19-1.667t-.474-1.296L65.448 103H59v5.556l13.086 17.037c.126.185.282.369.569.462.284.093.595.093.846.093h.956q.758 0 1.422.093t1.043.555q.474.37.474 1.204t-.474 1.296q-.379.371-1.043.463c-.443.062-1.012.093-1.422.093-.411 0-.736-.016-.949 0-.213.015-.498.05-.783.143s-.513.227-.64.412M157 143.353l20.961-22.821q1.537-1.67 3.367-2.133 1.825-.557 4.23.464 1.635.65 3.461-.278a9.4 9.4 0 0 0 3.173-2.691c.897-1.175 1.346-3.115 1.346-3.919q0-.743-.384-1.02-.288-.371-1.443-.464-1.151-.093-3.943-.093H157V103h40v9.555l-20.961 22.913q-1.06 1.113-2.213 1.762-1.058.557-2.403.557t-2.981-.65-3.556.371q-1.829.928-3.175 2.691c-.834 1.113-1.249 3.022-1.249 3.826q-.001.743.289 1.113.383.278 1.538.371 1.151.093 3.943.093H197V153h-40zM126.752 133.927c0-.681-.054-1.151-.158-1.492-.106-.34-.264-.601-.396-.706s-.393-.183-.631-.236a3.4 3.4 0 0 1-.552-.157 2.1 2.1 0 0 1-.631-.392c-.212-.184-.422-.471-.631-.785L109 108.495V103h6.005l11.205 16.484q1.498 2.12 1.578 4.003c.052 1.256-1.034 2.59-1.35 4.003q-.316 1.491-.238 2.277.159.706 1.105 1.177.949.392 3.235.392 2.368 0 3.315-.392.947-.471.947-1.177.078-.786-.238-2.277c-.316-1.57-1.402-2.93-1.35-4.082q.078-1.727 1.498-3.767L145.917 103H152v5.495l-14.75 21.585q-.317.471-.632.707a4 4 0 0 1-.631.392c-.21.105-.368.183-.554.236a2.4 2.4 0 0 0-.631.314q-.274.196-.394.706c-.08.341-.077.811-.077 1.492V153h-7.579z"/></svg>