<svg xmlns="http://www.w3.org/2000/svg" width="256" height="256" fill="none" viewBox="0 0 256 256"><path fill="#00008b" d="M128 256c70.692 0 128-57.308 128-128S198.692 0 128 0 0 57.308 0 128s57.308 128 128 128"/><mask id="a" width="128" height="128" x="0" y="0" maskUnits="userSpaceOnUse" style="mask-type:luminance"><path fill="#fff" d="M0 127.99C0 57.304 57.32 0 128 0v128z"/></mask><g mask="url(#a)"><path fill="#fff" d="M120.299 122.623h24.769v-16.565L62.681 58.192l82.387-48.002v-32.022L33.45 43.602l-82-47.536h-24.434v16.768L9.219 60.465l-82.203 47.882v14.276h28.698L37.902 74.71z"/><path fill="#fff" d="M58.548-16.879H13.551v60.387h-86.535v31.65H13.55v47.465h44.997V75.159h86.52V43.508h-86.52z"/><path fill="#cf142b" d="M51.619-16.879H20.501v65.273h-93.485v21.905H20.5v52.324h31.118V70.299h93.449V48.393H51.619z"/><path fill="#cf142b" d="M145.067 122.623v-12.62l-60-34.844H63.914zM-72.984-3.935V8.711l60.015 34.797H8.534zM145.066-3.935v-12.4l-86.52 49.894v9.95h4.605zM8.796 75.16l-81.78 47.463h21.748l64.787-37.608v-9.856z"/></g><path fill="#fff" d="m97.467 212.811-28.234-16.758 18.154-27.371-30.721 11.637-10.033-31.259-10.049 31.259L6.73 169.021c.053.162.152 1.113.183 1.275l17.12 25.752-3.22 1.918c6.867 10.357 15.134 19.695 24.42 27.925l1.4-1.5 8.214 8.643c3.721 2.676 9.474 5.9 13.435 8.183l-3.569-25.547zM193.496 24.617l12.238 18.358-18.984 11.25 21.947 1.897-3.041 21.838 15.186-15.985 15.18 15.985-3.156-23.353s-5.31-7.217-7.536-9.73c-2.759-3.094-12.499-12.735-12.499-12.735zM212.883 216.965l-24.351 9.254-8.001-24.795-7.99 24.795-24.351-9.254 14.402 21.691-22.381 13.325 14.328 1.244c17.966-3.784 34.468-11.423 48.802-21.885zM255.691 124.577l-25.955 9.829-8.502-26.394-8.486 26.394-25.951-9.829 15.379 23.107-23.86 14.156 27.633 2.399-3.83 27.502 19.115-20.113 18.284 19.261.544-.998-3.554-25.637 14.658-1.264 1.928-7.708-12.761-7.572z"/></svg>