<svg xmlns="http://www.w3.org/2000/svg" width="256" height="256" fill="none" viewBox="0 0 256 256"><path fill="#fff" d="M128 256c70.692 0 128-57.308 128-128S198.692 0 128 0 0 57.308 0 128s57.308 128 128 128"/><path fill="#d52b1e" d="M.008 127.947c0 42.695 20.987 80.341 53.104 103.544V24.467C20.984 47.695-.003 85.32.008 127.947M255.999 127.99c0-42.648-20.966-80.3-53.104-103.528v207.071c32.122-23.239 53.104-60.88 53.104-103.543M157.61 157.692l30.346-24.566-6.841-3.177a2.13 2.13 0 0 1-1.102-2.55l5.999-18.442-17.47 3.7a2.08 2.08 0 0 1-2.351-1.228l-3.387-7.959-13.634 14.627c-.784.846-2.111.878-2.957.073a2.04 2.04 0 0 1-.607-1.907l6.585-33.91-10.561 6.093c-.983.585-2.279.245-2.859-.742-.021-.042-.042-.09-.073-.126L128.001 66.55l-10.703 21.018a2.1 2.1 0 0 1-2.816.935c-.042-.026-.084-.042-.115-.068l-10.535-6.093 6.574 33.91a2.1 2.1 0 0 1-1.657 2.461 2.11 2.11 0 0 1-1.913-.621l-13.634-14.627-3.386 7.958a2.1 2.1 0 0 1-2.352 1.229l-17.47-3.7 5.99 18.441a2.07 2.07 0 0 1-1.098 2.54l-6.835 3.188 30.346 24.566c.69.559.95 1.51.637 2.347l-3.73 10.31 27.685-4.86a3.06 3.06 0 0 1 3.533 2.503c.042.214.052.429.042.653l-1.448 27.833h5.801l-1.443-27.833a3.06 3.06 0 0 1 2.916-3.198c.215 0 .439 0 .654.042l27.701 4.876-3.746-10.316a2.04 2.04 0 0 1 .611-2.352"/></svg>