<svg xmlns="http://www.w3.org/2000/svg" width="256" height="256" fill="none" viewBox="0 0 256 256"><circle cx="128" cy="128" r="128" fill="#039"/><path fill="#fc0" d="m127.703 195.45 8.952 27.551-23.436-17.027h28.968l-23.436 17.027zM127.703 33l8.952 27.55-23.436-17.027h28.968L118.751 60.55zM87.086 184.567l8.951 27.551-23.435-17.027h28.968l-23.436 17.027zM57.363 154.837l8.952 27.55-23.436-17.027h28.968l-23.436 17.027zM46.484 114.225l8.952 27.55L32 124.748h28.968l-23.436 17.027zM57.363 73.611l8.952 27.551-23.436-17.027h28.968l-23.436 17.027zM87.086 43.883l8.951 27.55-23.435-17.027h28.968L78.134 71.433zM168.321 184.567l-8.952 27.551 23.436-17.027h-28.969l23.436 17.027zM198.043 154.837l-8.952 27.55 23.436-17.027h-28.968l23.436 17.027zM208.922 114.225l-8.952 27.55 23.436-17.027h-28.968l23.436 17.027zM198.043 73.611l-8.952 27.551 23.436-17.027h-28.968l23.436 17.027zM168.321 43.883l-8.952 27.55 23.436-17.027h-28.969l23.436 17.027z"/></svg>