<svg xmlns="http://www.w3.org/2000/svg" width="256" height="256" fill="none" viewBox="0 0 256 256"><path fill="#fff" d="M128 256c70.692 0 128-57.308 128-128S198.692 0 128 0 0 57.308 0 128s57.308 128 128 128"/><path fill="#012169" d="M26.46 50.07A127.5 127.5 0 0 0 4.41 94.61H71zM251.592 94.61a127.6 127.6 0 0 0-22.051-44.539L185.004 94.61zM4.41 161.392a127.5 127.5 0 0 0 22.05 44.537l44.538-44.537zM205.929 26.46a127.6 127.6 0 0 0-44.538-22.05v66.588zM50.07 229.539a127.6 127.6 0 0 0 44.538 22.051v-66.588zM94.608 4.41A127.55 127.55 0 0 0 50.07 26.46l44.538 44.537zM161.391 251.59a127.5 127.5 0 0 0 44.537-22.051l-44.537-44.537zM185.004 161.392l44.537 44.538a127.6 127.6 0 0 0 22.051-44.538z"/><path fill="#c8102e" d="M254.917 111.304H144.696V1.084a129.3 129.3 0 0 0-33.392 0v110.22H1.084a129.3 129.3 0 0 0 0 33.391h110.22v110.222a129.4 129.4 0 0 0 33.391 0V144.696h110.222a129.4 129.4 0 0 0 0-33.392"/><path fill="#c8102e" d="m161.391 161.392 57.118 57.118a128 128 0 0 0 7.524-8.217l-48.901-48.901zM94.607 161.392h-.001l-57.118 57.117a128 128 0 0 0 8.218 7.524l48.9-48.902zM94.607 94.61v-.001L37.489 37.49a128 128 0 0 0-7.524 8.218l48.901 48.901zM161.391 94.61l57.118-57.12a128 128 0 0 0-8.217-7.523l-48.901 48.901z"/></svg>