<svg xmlns="http://www.w3.org/2000/svg" width="256" height="256" fill="none" viewBox="0 0 256 256"><circle cx="128" cy="128" r="128" fill="#fff"/><path fill="#000" d="m65.766 60.871-23.668 35.5ZM50.974 102.29 74.64 66.788Zm32.542-29.584-23.667 35.501Zm88.752 110.447 10.848-16.272Zm12.82-19.23 10.847-16.271Zm19.722-10.354-10.847 16.271Zm-12.819 19.229-10.848 16.271Zm-1.973 22.188 10.848-16.271Zm12.82-19.229 10.848-16.272Z"/><path stroke="#000" stroke-width="7" d="m65.766 60.871-23.668 35.5m8.876 5.918L74.64 66.788m8.875 5.917-23.667 35.501m112.419 74.946 10.848-16.272m1.972-2.958 10.847-16.271m8.875 5.917-10.847 16.271m-1.972 2.958-10.848 16.271m8.875 5.917 10.848-16.271m1.972-2.958 10.848-16.272"/><path fill="#000" d="m42.098 159.484 23.667 35.501Zm32.542 29.584-10.847-16.271Zm-12.82-19.229-10.847-16.271Zm-1.972-22.188 23.667 35.501Zm136.087-39.446-10.848-16.27Zm-12.82-19.23-10.848-16.27Zm-1.973-22.187 23.668 35.501Zm32.543 29.584L202.837 80.1Zm-12.82-19.23-10.847-16.271Z"/><path stroke="#000" stroke-width="7" d="m42.098 159.484 23.667 35.501m8.875-5.917-10.847-16.271m-1.973-2.958-10.847-16.271m8.875-5.917 23.667 35.501m112.42-74.947-10.848-16.27m-1.972-2.96-10.848-16.27m8.875-5.917 23.668 35.501m8.875-5.917L202.837 80.1m-1.972-2.959-10.847-16.271"/><path fill="#cd2e3a" d="M145.643 139.762a32.003 32.003 0 0 1-44.376 8.876 32 32 0 0 1-8.876-44.376 42.664 42.664 0 0 1 59.168-11.834 42.664 42.664 0 0 1 11.834 59.168"/><path fill="#0047a0" d="M127.894 127.928a21.335 21.335 0 0 1 35.501 23.668 42.666 42.666 0 0 1-59.168 11.833 42.666 42.666 0 0 1-11.834-59.168 21.334 21.334 0 1 0 35.501 23.667"/></svg>