<svg xmlns="http://www.w3.org/2000/svg" width="256" height="256" fill="none" viewBox="0 0 256 256"><path fill="#012169" d="M128 256c70.692 0 128-57.308 128-128S198.692 0 128 0 0 57.308 0 128s57.308 128 128 128"/><path fill="#fff" d="m203.369 77.12 9.098-6.616h-11.266l-3.449-10.687-3.48 10.687H183l9.119 6.615-3.481 10.692 9.114-6.61 9.082 6.61z"/><path fill="#c8102e" d="m201.468 76.502 5.983-4.374h-7.415l-2.284-7.06-2.304 7.06h-7.436l6.009 4.374-2.294 7.065 6.025-4.369 5.999 4.369z"/><path fill="#fff" d="m239.682 110.427 8.105-5.889h-10.002l-3.099-9.521-3.104 9.521h-9.996l8.084 5.889-3.109 9.526 8.125-5.894 8.084 5.894z"/><path fill="#c8102e" d="m237.783 109.804 5.001-3.637h-6.203l-1.897-5.899-1.917 5.899h-6.208l5.021 3.637-1.912 5.884 5.016-3.637 4.996 3.637z"/><path fill="#fff" d="m160.148 122.366 9.134-6.61H158l-3.47-10.707-3.464 10.707H139.82l9.098 6.61-3.449 10.687 9.082-6.595 9.077 6.595z"/><path fill="#c8102e" d="m158.283 121.734 6.009-4.363h-7.431l-2.33-7.07-2.258 7.07h-7.472l6.03 4.363-2.294 7.081 5.994-4.363 6.035 4.363z"/><path fill="#fff" d="m203.983 194.083 10.117-7.348h-12.5l-3.851-11.867-3.872 11.867h-12.494l10.096 7.348-3.846 11.888 10.116-7.332 10.08 7.332z"/><path fill="#c8102e" d="m202.069 193.461 7.033-5.09h-8.69l-2.66-8.246-2.701 8.246h-8.664l7.018 5.09-2.686 8.24 7.033-5.089 6.992 5.089z"/><mask id="a" width="128" height="128" x="0" y="0" maskUnits="userSpaceOnUse" style="mask-type:luminance"><path fill="#fff" d="M0 127.995C0 57.304 57.309 0 128 0v128z"/></mask><g mask="url(#a)"><path fill="#fff" d="M121.718 128h23.348v-17.166L67.362 61.171l77.704-49.784v-33.219L39.797 46.043-37.546-3.266h-23.04v17.391l77.537 49.418-77.537 49.659V128h27.068l77.516-49.684z"/><path fill="#fff" d="M63.464-16.695H21.032v62.649h-81.618v32.832h81.618V128h42.432V78.786h81.602V45.954H63.464z"/><path fill="#cf142b" d="M56.932-16.695H27.564v67.718h-88.15v22.71h88.15V128h29.368V73.733h88.134v-22.71H56.932z"/><path fill="#cf142b" d="M145.069 128v-13.084l-56.598-36.13H68.519zM-60.586-3.266V9.845l56.598 36.109h20.286zM145.067-3.266v-12.855L63.465 35.633v10.32h4.332zM16.549 78.786-60.586 128h20.52l61.098-38.998V78.786z"/></g></svg>