<svg xmlns="http://www.w3.org/2000/svg" width="256" height="256" fill="none" viewBox="0 0 256 256"><path fill="#fff" d="M128 255.999c70.692 0 127.999-57.307 127.999-127.999C255.999 57.307 198.692 0 128 0 57.307 0 0 57.307 0 128c0 70.692 57.307 127.999 128 127.999"/><path fill="#b31942" d="M122.434 128h133.564c0-11.553-1.54-22.745-4.409-33.392H122.434zM122.434 61.218h114.777a128.7 128.7 0 0 0-29.535-33.392h-85.242zM127.998 256c30.125 0 57.813-10.412 79.678-27.826H48.32C70.185 245.588 97.874 256 127.998 256M18.788 194.782h218.425a127.2 127.2 0 0 0 14.378-33.391H4.411a127.2 127.2 0 0 0 14.377 33.391"/><path fill="#0a3161" d="M59.292 19.989h11.664l-10.85 7.882 4.145 12.755-10.85-7.883-10.85 7.883 3.58-11.019a128.7 128.7 0 0 0-24.825 27.669h3.737l-6.906 5.017a128 128 0 0 0-3.097 5.47l3.298 10.15-6.153-4.47a127 127 0 0 0-4.186 9.936l3.634 11.184h13.41l-10.85 7.882 4.145 12.755-10.85-7.883-6.499 4.722C.34 117.268 0 122.594 0 128h128V0c-25.286 0-48.858 7.335-68.708 19.989M64.25 115.2l-10.85-7.883-10.85 7.883 4.145-12.755-10.85-7.882h13.411l4.144-12.755 4.144 12.755h13.411l-10.85 7.882zm-4.145-50.042 4.145 12.755L53.4 70.03l-10.85 7.883 4.145-12.755-10.85-7.882h13.411l4.144-12.755 4.144 12.755h13.411zm50.058 50.042-10.85-7.883-10.85 7.883 4.145-12.755-10.85-7.882H95.17l4.144-12.755 4.144 12.755h13.411l-10.85 7.882zm-4.145-50.042 4.145 12.755-10.85-7.883-10.85 7.883 4.145-12.755-10.85-7.882H95.17l4.144-12.755 4.144 12.755h13.411zm0-37.287 4.145 12.755-10.85-7.883-10.85 7.883L92.61 27.87 81.76 19.99H95.17l4.144-12.755 4.144 12.755h13.411z"/></svg>