<svg xmlns="http://www.w3.org/2000/svg" width="827" height="827" fill="none" viewBox="0 0 827 827"><path fill="#3a190b" d="M0 0h827v827H0z"/><path fill="#fb3d04" d="M641.044 522.718c-11.04 0-20.159 9.119-20.159 20.639s9.119 20.639 20.159 20.639 20.159-9.12 20.159-20.639c.48-11.04-8.64-20.639-20.159-20.639m0 37.918c-9.6 0-17.279-7.68-17.279-17.279s7.679-17.279 17.279-17.279 17.279 7.679 17.279 17.279a17.207 17.207 0 0 1-17.279 17.279"/><path fill="#fb3d04" d="M645.846 545.277c-.48-.48-.96-.48-1.92-.96 1.92-.48 3.36-.96 4.32-1.92s1.439-2.4 1.439-3.84-.479-2.4-.959-3.36-1.44-1.44-2.4-1.92-2.4-.48-4.32-.48h-9.6v21.599h2.88v-9.599h4.8c.48 0 .96.48 1.44.48l1.44 1.44c.48.48 1.44 1.44 1.92 2.88l2.88 4.319h3.359l-3.839-5.759c.48-1.44-.48-2.4-1.44-2.88m-3.84-3.36h-6.24v-7.2h6.72c1.44 0 2.88.48 3.36.96s.96 1.44.96 2.4c0 .48 0 1.44-.48 1.92l-1.44 1.44c-.48 0-1.44.48-2.88.48M466.331 488.639c33.118-44.158 95.516-106.075 97.435-149.753 3.84-56.638-53.277-75.357-112.315-74.877-41.278.48-83.516 12.479-112.315 22.559-100.315 35.518-162.713 91.676-202.551 154.553-41.758 61.918-27.839 120.955 60.477 122.875 67.677-2.88 111.835-21.599 157.913-45.118.48 0-127.194 36.478-173.752 9.6-4.8-2.88-10.08-6.72-11.52-17.28-.48-22.079 36.479-45.118 57.118-52.317v-38.399c15.359 5.76 31.679 9.12 48.958 9.12 33.118 0 63.357-12 86.876-31.679.96 3.36 1.44 7.2.96 11.04h9.12c.96-10.08-4.32-17.76-4.32-17.76-8.16-13.439-23.039-12.959-23.039-12.959s7.68 3.36 13.439 11.52c-21.599 18.239-49.438 28.798-79.676 28.798-12.96 0-25.439-1.92-36.959-5.759l30.239-30.239-8.16-22.079c60.958-21.119 111.836-37.439 195.352-52.318l-19.199-13.919 9.599-5.76c50.398 13.919 83.517 23.999 81.597 50.878-.96 4.32-2.4 9.599-4.8 15.359-14.399 28.799-58.077 77.277-75.837 97.436-11.519 13.439-23.039 26.399-31.198 38.878-8.16 12.48-13.44 24.479-13.92 35.519.96 87.836 258.229-40.799 308.147-74.877-73.437 31.678-152.633 61.917-239.99 67.677-24.479 1.44-21.599-11.52-7.679-30.719"/></svg>