<svg xmlns="http://www.w3.org/2000/svg" width="18" height="18" viewBox="0 0 18 18"><path fill="#fe5300" d="M0 0h18v18H0z"/><path fill="#fff" d="M2.13 7.25c.07 0 .17.06.3.15a7 7 0 0 1 .6.48A8.3 8.3 0 0 0 5.68 9.2a11.6 11.6 0 0 0 6.7-.03c.54-.17 1.12-.41 1.72-.74.15-.09.26-.1.33-.02.12.13.07.31-.15.55-.5.5-1.1.93-1.85 1.26a9.46 9.46 0 0 1-6.58.33 7.7 7.7 0 0 1-2.04-1.02 6.7 6.7 0 0 1-1.66-1.66 1 1 0 0 1-.14-.3q-.06-.21.06-.3a.07.07 0 0 1 .05-.02Zm11.2.28c.65-.5 1.36-.65 2.14-.44q.345.09.45.27c.07.11.1.3.07.55a2.77 2.77 0 0 1-1.11 2.04c-.07.05-.14.06-.2.03-.07-.03-.1-.09-.1-.18a.7.7 0 0 1 .11-.3 4.6 4.6 0 0 0 .52-1.38c0-.1 0-.16-.03-.2-.02-.04-.08-.07-.16-.1a1 1 0 0 0-.19-.04c-.38-.03-.78 0-1.18.1a.56.56 0 0 1-.3.01c-.07-.03-.12-.08-.12-.16s.03-.14.1-.2"/></svg>