<svg xmlns="http://www.w3.org/2000/svg" width="18" height="18"><path fill="url(#a)" d="M0 0h18v18H0z"/><path fill="#fff" d="M13 10.597a4.8 4.8 0 0 1-.678 1.287q-.404.544-.658.753-.393.344-.845.353-.326 0-.782-.177a2.3 2.3 0 0 0-.84-.176q-.402 0-.864.176-.463.177-.748.186-.433.018-.864-.362-.276-.227-.688-.78a5.3 5.3 0 0 1-.728-1.37A4.8 4.8 0 0 1 5 8.857q0-.905.413-1.56a2.42 2.42 0 0 1 2.034-1.142q.345.001.905.2.56.2.717.2.119 0 .796-.236.64-.217 1.082-.182 1.199.092 1.798.898-1.071.616-1.061 1.722.01.862.658 1.432.294.264.658.409zM10.99 4q.01.09.01.18 0 .675-.52 1.26c-.417.462-.922.73-1.47.687a1 1 0 0 1-.01-.17c0-.433.198-.895.55-1.273q.264-.287.671-.478A2.1 2.1 0 0 1 10.99 4"/><defs><linearGradient id="a" x1="3.349" x2="21.904" y1="3.122" y2="24.434" gradientUnits="userSpaceOnUse"><stop stop-color="#1a1e21"/><stop offset="1" stop-color="#06060a"/></linearGradient></defs></svg>