<svg xmlns="http://www.w3.org/2000/svg" width="18" height="18"><path fill="#0f238c" d="M0 0h18v18H0z"/><path fill="#fff" d="M5.052 7.504c.04-2.273 4.286-3.482 6.954-1v-2.97c-2.684-1.327-7.56-.247-6.954 3.97m4.594.277q.146.056.28.111.133.055.279.113C11.329 8.453 13 9.119 13 11.345c0 1.486-1.348 2.88-2.909 3.39-1.93.631-3.857.007-5.04-.535v-2.74c1 .756 1.876 1.161 2.966 1.185.656.015 1.653-.334 1.653-1.3 0-.715-.538-1.002-.952-1.223l-.18-.099c-2.377-1.381-1.66-4.16.488-4.388-.624.22-.752.58-.751.912 0 .705.737.99 1.37 1.235z"/></svg>