<svg xmlns="http://www.w3.org/2000/svg" width="164" height="161" fill="none" viewBox="0 0 164 161"><path fill="url(#a)" d="M82 161c45.287 0 82-36.041 82-80.5S127.287 0 82 0 0 36.041 0 80.5 36.713 161 82 161"/><path fill="#000" d="M40.445 131V28.1h56.1q8.25 0 14.7 3.15 6.6 3.15 10.35 8.85t3.75 13.35q0 5.85-2.25 10.65t-6.15 8.1q-3.75 3.15-8.55 4.8v.6q5.7 1.2 10.2 4.65 4.5 3.3 7.05 8.55 2.55 5.1 2.55 11.85 0 9.6-4.35 15.9-4.2 6.3-11.4 9.45-7.05 3-15.9 3zm19.5-16.65h34.05q6.15 0 10.05-3.3 4.05-3.45 4.05-10.65 0-4.2-1.65-7.35t-5.1-4.8q-3.3-1.8-8.55-1.8h-32.85zm0-44.25h31.5q4.5 0 7.5-1.65 3.15-1.65 4.65-4.5 1.65-2.85 1.65-6.3 0-6.6-3.6-9.75-3.45-3.15-9.15-3.15h-32.55z"/><path fill="#000" d="M100 93H64v12h36zM100 52H64v12h36z"/><path fill="#c6ff01" d="M70 69H60v18h10z"/><defs><linearGradient id="a" x1="76" x2="141.5" y1="86" y2="142" gradientUnits="userSpaceOnUse"><stop stop-color="#c6ff00"/><stop offset="1" stop-color="#fff"/></linearGradient></defs></svg>