<svg xmlns="http://www.w3.org/2000/svg" width="18" height="18" viewBox="0 0 18 18"><path fill="#f0f3fa" d="M0 0h18v18H0z"/><path fill="url(#a)" d="M11.16 4.87a4.63 4.63 0 0 0-6.5 2.4 4.62 4.62 0 0 0 .45 4.3q.075.12 0 .27l-.02.02-.63.64a.24.24 0 0 1-.18.06.26.26 0 0 1-.18-.06A6.15 6.15 0 0 1 3 8.63 5.87 5.87 0 0 1 5.71 4a5.98 5.98 0 0 1 6.53-.06c.18.12.42.3.72.53.09.07.14.13.15.17.02.08.02.15-.02.23l-.01.01-2.5 2.5c-.09.08-.19.1-.3.04a5 5 0 0 1-.3-.16c-.37-.22-.79-.3-1.24-.24a2 2 0 0 0-1.66 2.51c.03.1.04.18.04.22a.3.3 0 0 1-.1.2l-.6.6a.2.2 0 0 1-.14.05c-.12.01-.22-.04-.27-.15a3.32 3.32 0 0 1 4.17-4.57h.02l.98-.98v-.03Z"/><path fill="url(#b)" d="M13.64 5.45a.26.26 0 0 1 .2.02c.06.02.11.1.18.22l.14.25a6.02 6.02 0 0 1-3.57 8.84l-.04.02a6 6 0 0 1-5.65-1.44.3.3 0 0 1 0-.17c.02-.04.05-.1.1-.15l2.36-2.35a.4.4 0 0 1 .19-.13c.07-.02.14 0 .22.04l.33.2a1.99 1.99 0 0 0 2.72-.96c.18-.4.23-.8.14-1.22l-.05-.26c-.03-.12 0-.22.07-.29l.64-.63c.1-.05.2-.05.29 0 .05.03.1.11.16.25a3.4 3.4 0 0 1-.18 2.98 3.3 3.3 0 0 1-2.47 1.64 3.3 3.3 0 0 1-1.61-.18l-.99.98v.02c.8.41 1.63.59 2.52.52h.05A4.6 4.6 0 0 0 13 11.38a4.63 4.63 0 0 0-.07-4.88.5.5 0 0 1-.08-.18.28.28 0 0 1 .06-.19l.55-.55c.06-.07.12-.11.17-.13Z"/><defs><linearGradient id="a" x1="12.22" x2="3.74" y1="4.46" y2="10.23" gradientUnits="userSpaceOnUse"><stop stop-color="#79ebc2"/><stop offset="1" stop-color="#6adaf3"/></linearGradient><linearGradient id="b" x1="13.87" x2="5.76" y1="6.81" y2="14.01" gradientUnits="userSpaceOnUse"><stop stop-color="#66bbfe"/><stop offset="1" stop-color="#a994f6"/></linearGradient></defs></svg>