<svg xmlns="http://www.w3.org/2000/svg" width="18" height="18"><path fill="url(#a)" d="M0 0h18v18H0z"/><path fill="#f7760d" d="M13.72 4.11a1.1 1.1 0 0 0-.455.403c-.113.176-.18.38-.19.593h-.001a1.06 1.06 0 0 0-1.046-.131 1.16 1.16 0 0 0 .328.534c.118.108.256.19.406.237a2.2 2.2 0 0 1-.644.677.77.77 0 0 1-.373.13.8.8 0 0 1-.487-.093.86.86 0 0 1-.353-.364.85.85 0 0 1-.462.404.8.8 0 0 1-.601-.022 2.27 2.27 0 0 1-.993-1.34l.018-.002c.17-.02.333-.08.477-.178a1.14 1.14 0 0 0 .403-.484 1.06 1.06 0 0 0-1.074-.143c.01-.407-.28-1.02-.638-1.244a1 1 0 0 0-.14-.073L7.862 3l-.022.03a1 1 0 0 0-.077.119c-.21.376-.153 1.052.044 1.403a1.06 1.06 0 0 0-.52.213 1.14 1.14 0 0 0-.355.456 1.07 1.07 0 0 0 1.075.136l.017-.008c.102.469.06.96-.121 1.401l-.002-.006-.01.034a2 2 0 0 1-.144.284.84.84 0 0 1-.52.321.8.8 0 0 1-.59-.127.93.93 0 0 1-.148.497.85.85 0 0 1-.387.323.8.8 0 0 1-.234.058 2.1 2.1 0 0 1-.995-.273c.11-.118.194-.26.248-.414a1.2 1.2 0 0 0 .062-.483 2 2 0 0 0-.02-.195c-.382.05-.698.408-.856.6h-.001c-.211-.192-.599-.535-1.024-.5A1 1 0 0 0 3 6.956a14.8 14.8 0 0 1 2.212 2.16c.382.458 1.033 1.383 1.034 1.382.17.166.395.255.626.247a.06.06 0 0 0 .037-.02.07.07 0 0 0 .016-.04c.003-.025-.037-.04-.057-.05a.5.5 0 0 1-.202-.141.53.53 0 0 1-.114-.226C6.43 9.866 7.58 9.14 9.26 8.691c1.68-.447 3.029-.393 3.107.023a.55.55 0 0 1-.108.482c-.013.018-.042.052-.028.071a.06.06 0 0 0 .033.028.06.06 0 0 0 .042 0 .91.91 0 0 0 .436-.532s.18-1.146.305-1.74A15.4 15.4 0 0 1 14 4.026a1 1 0 0 0-.28.085"/><path fill="#61b510" d="M7.958 9.526a9.3 9.3 0 0 1 2.669-.763s1.907.197 1.907 2.546c0 2.35-1.593 3.691-3.76 3.691-2.168 0-3.31-1.003-3.31-2.07 0-1.07.731-1.24 1.071-1.24s.956.323.956 1.16c0 0-.613-.157-.613.399s.724.902 1.717.902 2.395-.457 2.395-2.49c0-2.17-.95-2.268-1.615-2.268v3.723a.35.35 0 0 0 .103.238c.065.062.15.094.238.09 0 0-.255.296-1.12.296s-1.105-.297-1.105-.297.467.052.467-.327z"/><defs><linearGradient id="a" x1="3.349" x2="21.904" y1="3.122" y2="24.434" gradientUnits="userSpaceOnUse"><stop stop-color="#1a1e21"/><stop offset="1" stop-color="#06060a"/></linearGradient></defs></svg>