<svg xmlns="http://www.w3.org/2000/svg" width="18" height="18" viewBox="0 0 18 18"><path fill="#f0f3fa" d="M0 0h18v18H0z"/><path fill="#f71603" d="m7.58 6-.37-.76a8 8 0 0 0-.43-.73 5.02 5.02 0 0 1 5.7.93v.05L11.3 6.66h-.01a3.25 3.25 0 0 0-3.7-.65Z"/><path fill="url(#a)" d="M6.78 4.51a8.3 8.3 0 0 1 .8 1.5c-.77.38-1.33.97-1.66 1.77a37 37 0 0 1-1.57-.64l.21-.45A4.98 4.98 0 0 1 6.78 4.5Z"/><path fill="url(#b)" d="M5.92 7.78c-.3.77-.3 1.54-.04 2.32-.53.2-1.06.38-1.6.55a5.02 5.02 0 0 1 .07-3.5c.52.22 1.04.43 1.57.63"/><path fill="#108ced" d="m13.94 9.04-1.24.59c-.2.1-.39.31-.58.37H9V8.37h4.99l.01.02z"/><path fill="url(#c)" d="M13.94 9.04c-.03.74-.2 1.43-.5 2.08-.3.66-.73 1.23-1.27 1.7a6.3 6.3 0 0 0-1.12-1.27c.47-.4.8-.9 1-1.5.01-.05 0-.04.04-.11.19-.06.42-.22.61-.31z"/><path fill="url(#d)" d="M5.88 10.1a3.3 3.3 0 0 0 1.15 1.56 20 20 0 0 0-1.09 1.3 4.96 4.96 0 0 1-1.66-2.31c.54-.17 1.07-.35 1.6-.55"/><path fill="url(#e)" d="m11.05 11.55.36.36c.28.28.53.59.76.92a4.82 4.82 0 0 1-3.9 1.12 4.9 4.9 0 0 1-2.33-.98l.3-.37c.34-.42.6-.73.8-.94a3.34 3.34 0 0 0 3.06.44c.35-.13.67-.32.95-.55"/><defs><linearGradient id="a" x1="7.72" x2="6.56" y1="5.99" y2="8.2" gradientUnits="userSpaceOnUse"><stop stop-color="#f71603"/><stop offset=".47" stop-color="#fa6702"/><stop offset="1" stop-color="#ffa001"/></linearGradient><linearGradient id="b" x1="5.44" x2="4.95" y1="7.65" y2="10.65" gradientUnits="userSpaceOnUse"><stop stop-color="#ffa001"/><stop offset=".99" stop-color="#fbcc07"/></linearGradient><linearGradient id="c" x1="11.59" x2="12.43" y1="11.92" y2="9.84" gradientUnits="userSpaceOnUse"><stop stop-color="#03b58f"/><stop offset="1" stop-color="#108ced"/></linearGradient><linearGradient id="d" x1="4.72" x2="5.66" y1="10.66" y2="12.96" gradientUnits="userSpaceOnUse"><stop stop-color="#fbc205"/><stop offset="1" stop-color="#00bc43"/></linearGradient><linearGradient id="e" x1="9.19" x2="11.96" y1="12.99" y2="12.32" gradientUnits="userSpaceOnUse"><stop stop-color="#00bc43"/><stop offset="1" stop-color="#03b58f"/></linearGradient></defs></svg>