<svg xmlns="http://www.w3.org/2000/svg" width="827" height="827" fill="none" viewBox="0 0 827 827"><path fill="#fa6710" d="M0 0h827v827H0z"/><path fill="#000" d="M372.922 230.335h33.783V181h53.179v54.475c14.387 3.953 26.468 10.324 35.979 19.154 27.786 22.625 34.112 83.25 15.903 115.627-6.502 11.949-16.496 22.163-30.071 30.532 23.766 4.723 43.668 13.794 57.572 31.454l.022-.021c38.022 55.397 10.719 140.403-56.539 156.153-7.204 2.196-14.849 3.712-22.866 4.876V647h-53.179v-51.772h-33.783V647h-53.157v-51.772h-41.669V230.335h41.669V181h53.157zm71.981 223.061c-11.751-8.896-49.752-9.863-72.091-9.182v77.429c22.295.68 60.384-.308 72.091-9.182v.021c20.778-10.785 20.668-48.301 0-59.086M271 411.171v-.784h.396zM372.812 375h19.857c33.76 0 50.608-13.355 50.608-40.175v-.11c0-26.82-16.826-40.175-50.608-40.175h-19.857z"/></svg>