<svg xmlns="http://www.w3.org/2000/svg" width="827" height="827" fill="none" viewBox="0 0 827 827"><g clip-path="url(#a)"><path fill="url(#b)" d="M0 0h827v827H0z"/><path fill="#fff" d="M0 529.17h103.21c30.985 0 45.209-12.24 45.209-47.194v-73.217c0-109.164 51.164-166.172 148.97-166.172 51.164 0 89.978 18.194 113.024 53.148 24.038-34.954 60.977-53.148 112.141-53.148 97.806 0 148.97 57.008 148.97 166.172V595.55h-72.776V408.759c0-67.373-27.015-99.792-76.194-99.792s-76.195 32.419-76.195 99.792V595.55h-72.776V408.759c0-67.373-27.015-99.792-76.194-99.792s-76.194 32.419-76.194 99.792v73.217c0 81.597-39.365 113.574-117.985 113.574H0z"/></g><defs><linearGradient id="b" x1="811.5" x2="31.5" y1="14.5" y2="785.5" gradientUnits="userSpaceOnUse"><stop stop-color="#b502ee"/><stop offset=".453" stop-color="#0d0011"/><stop offset=".558" stop-color="#121318"/><stop offset=".843" stop-color="#232730"/><stop offset="1" stop-color="#343643"/></linearGradient><clipPath id="a"><path fill="#fff" d="M0 0h827v827H0z"/></clipPath></defs></svg>