<svg xmlns="http://www.w3.org/2000/svg" width="18" height="18" viewBox="0 0 18 18"><path fill="url(#a)" d="M0 0h18v18H0z"/><path fill="#fff" d="M4 9.05c0-.9.47-1.64 1.4-2.2A7 7 0 0 1 9.07 6c.92 0 1.74.12 2.48.35s1.33.56 1.77 1.01c.46.45.68.97.68 1.57 0 .9-.47 1.65-1.41 2.22s-2.16.85-3.66.85c-.92 0-1.74-.11-2.48-.34a4.3 4.3 0 0 1-1.79-1.02A2.2 2.2 0 0 1 4 9.05M8.98 6.4c-1.06 0-1.94.23-2.64.68a2.15 2.15 0 0 0-1.03 1.91c0 .81.34 1.46 1.02 1.93.68.46 1.58.7 2.68.7a4.7 4.7 0 0 0 2.64-.68 2.15 2.15 0 0 0 1.04-1.91 2.2 2.2 0 0 0-1.03-1.92 4.65 4.65 0 0 0-2.68-.7Z"/><defs><linearGradient id="a" x1="9" x2="9" y1="0" y2="18" gradientUnits="userSpaceOnUse"><stop stop-color="#0d1836"/><stop offset=".5" stop-color="#122351"/><stop offset="1" stop-color="#0c1838"/></linearGradient></defs></svg>