<svg xmlns="http://www.w3.org/2000/svg" width="800" height="800" fill="none" viewBox="0 0 800 800"><path fill="#f3f3f3" d="M0 0h800v800H0z"/><path fill="#130c0e" d="M417.713 534.001h95.731l-47.861-42.795zm299.468 0h64.841l-101.543-91.032h32.337a55.2 55.2 0 0 0 38.932-16.12 55 55 0 0 0 16.151-38.86v-67.66a54.99 54.99 0 0 0-16.151-38.859 55.19 55.19 0 0 0-38.932-16.12H417.665l47.938 43.027h247.213a12 12 0 0 1 8.462 3.506 11.96 11.96 0 0 1 3.513 8.446v67.66a11.95 11.95 0 0 1-3.51 8.449 12 12 0 0 1-8.465 3.504H567.729z"/><path fill="#e42727" d="m17.928 399.932 413.986 29.047c30.219 2.125 59.855-8.499 81.073-29.047-21.51-20.374-50.796-30.706-80.587-28.649z"/></svg>