<svg xmlns="http://www.w3.org/2000/svg" width="18" height="18" viewBox="0 0 18 18"><path fill="#f0f3fa" d="M0 0h18v18H0z"/><path d="M7.77 3.07 8.16 3l.52 3.02-.39.06zm-1.96.8c.14-.1.28-.17.43-.25l1.5 2.66a3 3 0 0 0-.43.24L5.8 3.87ZM4.24 5.3c.12-.16.25-.3.38-.45l2.31 1.98c-.14.13-.27.28-.38.44L4.25 5.3Zm-.97 1.9q.105-.345.24-.66l2.85 1.03c-.1.2-.2.42-.26.64zM3 9.32a6 6 0 0 1 0-.74l3.02-.02a3 3 0 0 0-.01.74L3 9.33Zm.48 2.05c-.1-.25-.2-.52-.28-.8l2.84-1.03c.05.29.15.56.27.8L3.5 11.38ZM4.7 13.2c-.2-.2-.4-.44-.57-.68l2.29-1.98c.15.26.34.49.56.69L4.7 13.19Zm1.74 1.25c-.3-.14-.57-.3-.83-.48l1.49-2.64a3 3 0 0 0 .82.48zm2.02.55a6 6 0 0 1-1-.17l.52-3a3 3 0 0 0 3.9-3.68h3.06a6.1 6.1 0 0 1 .02 1.5h-2l1.88.72c-.1.43-.25.85-.44 1.25l-2.15-.82 1.78 1.49q-.375.555-.84 1.02l-1.9-1.6 1.24 2.17c-.33.24-.7.45-1.07.62l-1.35-2.34.45 2.66c-.35.1-.71.16-1.09.19l-.5-2.95-.5 2.94ZM13.5 4.98l.2.23-2.31 1.96a3 3 0 0 0-.2-.24zm-1.66-1.33.3.18-1.5 2.66a3 3 0 0 0-.3-.18zm-1.58-.58-.54 3.01a3 3 0 0 0-.38-.06L9.87 3l.38.07Z"/></svg>