<svg xmlns="http://www.w3.org/2000/svg" width="18" height="18" viewBox="0 0 18 18"><path fill="#2b3d51" d="M0 0h18v18H0z"/><path fill="#feffff" d="M8.82 6.82a2.2 2.2 0 0 1 .37-.29.02.02 0 0 1 .02.03.77.77 0 0 1-.25.37 2.9 2.9 0 0 0-.62.71.1.1 0 0 0 0 .04c.02.06.02.1 0 .14a61 61 0 0 0-1.17 1.55l.01.02.03.01h.02c.36-.45.74-.95 1.15-1.5.1-.13.17-.27.24-.4.12-.23.23-.44.45-.56.1-.06.16-.15.22-.23.06-.1.12-.2.24-.24a.1.1 0 0 0 .05-.04l.35-.53a.1.1 0 0 0-.02-.12c-.21-.18-.4-.42-.55-.72a.1.1 0 0 0-.2 0c-.14.32-.33.57-.57.76a.3.3 0 0 0-.05.05L7.36 7.53a.35.35 0 0 1-.11.1c-.26.14-.46.32-.61.52-.1.12-.2.2-.32.28-.1.07-.22.15-.3.27-.44.57-.91 1.1-1.44 1.58-.08.08-.19.15-.3.22l-.15.11a.04.04 0 0 0-.01.05.04.04 0 0 0 .05.02c.3-.1.51-.3.79-.57l.2-.2a.25.25 0 0 1 .22-.06.08.08 0 0 0 .07-.03q.225-.3.45-.42a.2.2 0 0 0 .06-.04L6.23 9l.03.01a.04.04 0 0 1 0 .06l-.72.86a.01.01 0 0 0 0 .02l.02.02a.03.03 0 0 0 .02 0 .03.03 0 0 0 .02 0l1.7-2.02h.01l.03.01-.95 1.22a.03.03 0 0 0 .02.04h.02l.13-.14a.09.09 0 0 1 .08-.04h.12v-.01l1.57-1.92a.01.01 0 0 1 .01 0l.03.02v.01l-1.4 1.79a.04.04 0 0 0 0 .05.05.05 0 0 0 .07 0l1.78-2.17Zm1.1.82a.4.4 0 0 0-.16.19.02.02 0 0 0 .03.03h.01l.15-.18a.02.02 0 0 1 .02 0l.03.01-.83 1.26v.01l.02.02a.02.02 0 0 0 .02 0l1.52-2.1a.06.06 0 0 0 0-.05l-.08-.29a.07.07 0 0 0-.06-.05.4.4 0 0 1-.13-.04.13.13 0 0 1-.07-.07l-.08-.25a.14.14 0 0 0-.24-.04l-.66.98-.01.03c0 .08-.05.12-.12.13-.2.02-.47.5-.53.63a14 14 0 0 1-.37.52.16.16 0 0 0-.01.15.11.11 0 0 1-.02.1l-.46.55a.02.02 0 0 0 0 .02l.02.02a.01.01 0 0 0 .01 0l.55-.64v-.03l-.02-.02a.07.07 0 0 1 0-.1l.19-.25h.03l.03.01a.01.01 0 0 1 0 .01l-.19.24v.02h.05l.46-.57a.01.01 0 0 1 .02 0l.02.02v.03c-.02.05-.06.1-.1.15-.12.16-.26.33-.25.47a.04.04 0 0 0 .05.03h.02l.7-.9a.02.02 0 0 1 .03 0h.03a.01.01 0 0 1 0 .02l-.71 1.08a.03.03 0 0 0 0 .04l.03.02a.04.04 0 0 0 .06 0l.95-1.27a.02.02 0 0 1 .04.01l.02.04v.01Zm.5.02a.02.02 0 0 0 0-.03.01.01 0 0 0-.03 0l-.31.42a.02.02 0 0 1-.02 0 .02.02 0 0 1-.02 0L10.03 8v-.01l.84-1.2a.08.08 0 0 1 .11-.02l.03.04.05.18a.18.18 0 0 1-.03.17L9.42 9.3h-.04a.02.02 0 0 1 0-.02v-.01l.52-.76.01-.03.02-.1.02-.04z"/><path fill="#feffff" d="m4.72 9.08.03.03a.01.01 0 0 0 .01 0 5.7 5.7 0 0 0 1.07-1.09h.02l.02.02a.03.03 0 0 1 0 .04l-.46.57v.02h.02c.29-.25.52-.55.7-.88.03-.07.1-.11.18-.13a.02.02 0 0 1 .02.02l-.4.6a.03.03 0 0 0 .03.06.1.1 0 0 0 .09-.05c.17-.23.33-.37.49-.42a.2.2 0 0 0 .08-.07l.02-.03c.07-.09.13-.17.25-.23a.5.5 0 0 0 .22-.17.07.07 0 0 0-.02-.1L6.8 7.1a.06.06 0 0 0-.04 0 .1.1 0 0 0-.03.01l-.14.19a.04.04 0 0 1-.07-.04l.06-.22a.1.1 0 0 0-.01-.08c-.1-.15-.26-.2-.46-.17a.12.12 0 0 0-.07.05c-.18.24-.42.56-.73.84-.28.26-.5.47-.62.64a.5.5 0 0 1-.13.11c-.15.08-.27.22-.38.4a.45.45 0 0 1-.13.15l-.13.09a.5.5 0 0 0-.09.08l-.38.45a.5.5 0 0 1-.1.09L3 9.9v.02l.01.02a.05.05 0 0 0 .03.02.04.04 0 0 0 .03 0 .6.6 0 0 1 .34-.12c.03 0 .05 0 .07-.02l.56-.45.01-.01.4-.51a.03.03 0 0 1 .02-.01.02.02 0 0 1 .02 0l.02.02-.47.64a.02.02 0 0 0 0 .03l.03.02h.02l.57-.63a23 23 0 0 1 1.24-1.2h.02l.01.02v.02l-.2.24a5 5 0 0 1-1.02 1.07v.01Zm7.5-.68-.03-.02-1.36 1.7h-.06l-.02-.01v-.02l.96-1.27v-.02l-.03-.01-1.45 1.57a.02.02 0 0 1-.03 0l-.03-.02v-.03l.34-.45V9.8h-.02l-.65.6H9.8l-.02-.02a.03.03 0 0 1 0-.04c.4-.3.68-.69.95-1.07.04-.07.1-.13.16-.18l.7-.53c.18-.14.32-.36.41-.65a.3.3 0 0 1 .06-.1.6.6 0 0 1 .12-.09.45.45 0 0 0 .16-.15 3 3 0 0 0 .2-.4l.03-.01.31-.1a.07.07 0 0 1 .08.04c.04.08.1.16.17.23l.02.03c0 .02 0 .04-.02.05-.05.06-.13.2-.24.43-.04.07-.07.1-.1.1l-.13.03a.1.1 0 0 0-.03.03l-.9 1.18-.03-.01v-.04zm-2.35.59.01-.01c.2-.25.4-.5.6-.78.03-.02.06-.03.1-.01a.04.04 0 0 0 .05-.01l.62-.83a.07.07 0 0 0 .01-.07.07.07 0 0 0-.04-.04h-.02a.1.1 0 0 0-.12.03l-1.26 1.7.01.01a.04.04 0 0 0 .03.01zm1.5-1.54-.02-.02a.03.03 0 0 0-.05 0l-1.08 1.42a.03.03 0 0 0 .01.04l.02.02h.05l1.07-1.42a.03.03 0 0 0 0-.04m1.85.02-1.3 1.96v.01h.01a9 9 0 0 0 .71-.9l.06-.02h.02a.12.12 0 0 0 .1-.06l.49-.8a.15.15 0 0 0-.01-.18h-.01a.04.04 0 0 0-.06-.02zm-1.6.09a.02.02 0 0 1 0 .03l-.01.02a64 64 0 0 1-1.33 1.6c-.08.08-.12.12-.13.1-.02-.01.12-.2.37-.55l.96-1.25.02-.02a.02.02 0 0 1 .03 0zm-.41.72v-.01l.46-.7a.06.06 0 0 1 .08-.02l.1.07a.05.05 0 0 1 .01.06 3 3 0 0 1-.16.2h-.01v-.02l.06-.1c.02-.06 0-.1-.03-.12a.02.02 0 0 0-.03.01v.01c0 .05-.03.1-.1.18l-.13.14c-.05.1-.13.2-.25.3m1.22.95.73-.96a.01.01 0 0 1 .02 0l.06.01a.01.01 0 0 1 .01.01v.01l-.72 1.1a.01.01 0 0 0 0 .01l.07.05h.01L13.58 8a.01.01 0 0 0 0-.01l-.15-.28a.01.01 0 0 0-.02 0l-1 1.5v.02za.01.01 0 0 0 .01 0Zm.57.05-.03-.01a.07.07 0 0 1-.03-.1l.69-1.06.01-.01a.03.03 0 0 1 .04.02c0 .13-.18.36-.4.67l-.26.36c-.03.05-.04.09-.02.13"/><path fill="#feffff" d="m12.56 8.17-.5.72h-.01v.03a.02.02 0 0 0 .02 0h.01l.55-.7v-.04l-.04-.02a.02.02 0 0 0-.03 0ZM13 9.28l.05-.01v-.01a24 24 0 0 1 .73-1.05h.05v.01a.07.07 0 0 1 .02.1l-.35.53a.1.1 0 0 1-.03.04 1.3 1.3 0 0 0-.41.45H13zm-7.13-.92-.71.9a.01.01 0 0 0 0 .02h.01c.02.02.06 0 .11-.04.06-.05.12-.12.18-.2l.27-.33a1.6 1.6 0 0 0 .14-.22.3.3 0 0 0 .03-.08v-.04l-.02-.01Zm8.05.14h-.02c-.01-.02-.03-.01-.04 0l-.43.64.01.05h.06l.42-.65zm-.12.54c-.01-.01.02-.08.08-.15.05-.07.1-.12.12-.1.01 0-.02.07-.08.14-.05.07-.1.12-.12.1Zm-1.03 1.69q.33-.39.72-.72a.7.7 0 0 0 .08-.2.3.3 0 0 1 .06-.1c.08-.07.15-.16.22-.25.17-.2.34-.42.58-.6l.05-.01.04.02.14.13a.06.06 0 0 1 0 .08l-1.13 1.28a.02.02 0 0 1-.02.01h-.01l-.01-.01v-.02l.5-.65v-.01l-.02-.02a.03.03 0 0 0-.05 0l-.94.94a1 1 0 0 1-.2.15.02.02 0 0 1-.01-.02m-6.41.17.36-.24.03-.02.39-.37c.37-.36.63-.6.97-.83.15-.1.28-.25.39-.44a.05.05 0 0 1 .07-.01l.01.02c.03.14.1.25.22.34a.06.06 0 0 1 .03.06c0 .01 0 .02-.02.03l-.99 1.1H7.8a.02.02 0 0 1 0-.02l.57-.8a.02.02 0 0 0 0-.03.02.02 0 0 0-.03 0l-.72.81H7.6a.02.02 0 0 1 0-.02l.5-.7-.01-.01-.02-.02h-.02l-.91.99a.02.02 0 0 1-.03 0l-.03-.04.55-.6a.03.03 0 0 0 0-.04l-.02-.02h-.04a3.4 3.4 0 0 1-1.21.87v-.02ZM4.98 9.1h-.04l-.64.57a.02.02 0 0 0 0 .03l.02.02a.02.02 0 0 0 .03 0l.62-.6V9.1Zm9.9.12v.03h-.01c-.26.29-.52.56-.72.75s-.31.29-.33.28v-.01a5 5 0 0 1 .56-.7l.37-.42.01-.01h.03zM4.63 9.17c.01.01-.15.2-.37.4-.22.22-.41.37-.43.36-.01-.02.16-.2.38-.4.22-.22.4-.38.42-.36m10.34.13a.01.01 0 0 1 .02 0v.05l-.03.1a1.1 1.1 0 0 1-.19.24l-.03.04c-.08.08-.16.16-.23.2-.07.05-.11.07-.13.05a.01.01 0 0 1 0-.01l.6-.67Zm-10.02.04c.01.01-.03.06-.1.12-.06.05-.12.09-.13.08-.01-.02.03-.07.1-.12.06-.06.12-.1.13-.08m3.56.84q-.045-.06-.12 0a10 10 0 0 0-.52.59l-.02-.01-.02-.02.9-1.14a.24.24 0 0 1 .18-.09h.07a.06.06 0 0 1 .06.07c0 .01 0 .02-.02.03l-.5.57c-.02.06-.04.11-.1.15H8.4v-.02c.01-.05.05-.09.11-.13m.69-.56c.01.01.02.04 0 .06l-.75.92a.04.04 0 0 1-.06 0 .04.04 0 0 1 0-.05l.75-.93a.04.04 0 0 1 .05 0Zm-.15.45-.02-.02H9l-.72.9v.03l.02.01h.04l.71-.89z"/></svg>