<svg width="256" height="256" viewBox="0 0 256 256" fill="none" xmlns="http://www.w3.org/2000/svg">
<rect width="256" height="256" rx="128" fill="#6A9BC3"/>
<path d="M179.706 127.644L179.505 127.098C169.766 100.167 153.781 75.9639 132.898 56.4404L131.953 55.5791C130.893 54.5742 129.461 54 128 54C126.539 54 125.107 54.5742 124.047 55.5791L123.102 56.4404C102.219 75.9639 86.2344 100.167 76.4948 127.098L76.2943 127.644C74.1172 133.615 73 139.961 73 146.334C73 176.51 97.8646 201 128 201C158.135 201 183 176.51 183 146.334C183 139.961 181.883 133.644 179.706 127.644ZM153.667 141.855C153.684 141.855 153.7 141.866 153.707 141.882C154.874 144.545 155.471 147.435 155.471 150.325C155.471 165.542 143.154 178.031 127.971 178.031C112.789 178.031 100.471 165.542 100.471 150.325C100.471 147.425 101.073 144.497 102.247 141.855L102.792 140.621C107.318 130.457 113.648 121.184 121.497 113.317L124.047 110.762C125.078 109.728 126.482 109.154 127.943 109.154C129.404 109.154 130.807 109.728 131.839 110.762L134.388 113.317C142.237 121.184 148.596 130.457 153.094 140.621L153.626 141.829C153.633 141.845 153.649 141.855 153.667 141.855Z" fill="#1B3A54"/>
</svg>
