<svg width="256" height="256" viewBox="0 0 256 256" fill="none" xmlns="http://www.w3.org/2000/svg">
<rect width="256" height="256" rx="128" fill="#2C2C2C"/>
<path d="M128 192C102.052 192 81 170.826 81 144.727C81 122.273 112.872 77.2405 121.782 65.0777C123.227 63.108 125.503 62 127.951 62H128.049C130.497 62 132.773 63.108 134.218 65.0777C143.128 77.2405 175 122.273 175 144.727C175 170.826 153.948 192 128 192ZM108.417 142.758C108.417 139.483 105.797 136.848 102.542 136.848C99.2859 136.848 96.6667 139.483 96.6667 142.758C96.6667 161.248 111.574 176.242 129.958 176.242C133.214 176.242 135.833 173.608 135.833 170.333C135.833 167.059 133.214 164.424 129.958 164.424C118.061 164.424 108.417 154.723 108.417 142.758Z" fill="#A0A0A0"/>
</svg>
