<svg width="256" height="256" viewBox="0 0 256 256" fill="none" xmlns="http://www.w3.org/2000/svg">
<rect width="256" height="256" rx="128" fill="#5B8C5A"/>
<path d="M169.83 67.3982C166.022 64.6835 160.847 66.1618 158.514 70.2203L139.098 103.898C147.492 108.145 153.257 116.88 153.257 126.933H191.874C196.62 126.933 200.509 123.062 199.946 118.359C197.505 97.367 186.162 79.0901 169.83 67.3982ZM96.4861 70.1935C94.1531 66.1349 88.9774 64.6566 85.1694 67.3982C68.8379 79.0632 57.4944 97.3402 55.0541 118.359C54.4909 123.062 58.4062 126.933 63.1259 126.933H101.742C101.742 116.854 107.508 108.145 115.902 103.898L96.4861 70.1935ZM93.9653 182.221C91.6323 186.279 92.9463 191.494 97.1834 193.456C106.408 197.675 116.679 200.041 127.486 200.041C138.294 200.041 148.564 197.675 157.79 193.456C162.027 191.52 163.341 186.279 161.008 182.221L141.619 148.516C137.57 151.177 132.716 152.736 127.513 152.736C122.311 152.736 117.457 151.177 113.408 148.516L93.9653 182.221ZM127.486 139.834C134.593 139.78 140.305 133.975 140.278 126.852C140.224 119.703 134.405 113.978 127.299 114.031C120.192 114.085 114.48 119.891 114.534 127.04C114.561 134.163 120.38 139.888 127.486 139.834Z" fill="#1E3A1D"/>
</svg>
