<svg width="512" height="512" viewBox="0 0 512 512" fill="none" xmlns="http://www.w3.org/2000/svg">
<path d="M256 160C158.8 160 80 238.8 80 336C80 433.2 158.8 512 256 512C353.2 512 432 433.2 432 336C432 238.8 353.2 160 256 160ZM348.52 317.26L310.59 354.22L319.56 406.44C321.16 415.8 311.3 422.95 302.91 418.53L256 393.88L209.1 418.53C200.7 422.98 190.85 415.79 192.45 406.44L201.42 354.22L163.49 317.26C156.67 310.62 160.44 299.03 169.84 297.67L222.27 290.03L245.7 242.51C247.81 238.23 251.89 236.12 255.98 236.12C260.09 236.12 264.2 238.26 266.31 242.51L289.74 290.03L342.17 297.67C351.57 299.03 355.34 310.62 348.52 317.26Z" fill="#C0C0C0"/>
<path d="M223.749 130.75L154.619 15.54C151.777 10.8006 147.755 6.87819 142.947 4.15484C138.138 1.43149 132.706 6.78526e-05 127.179 0H16.0293C3.07928 0 -4.50072 14.57 2.91928 25.18L114.189 184.14C143.909 156.37 181.709 137.31 223.749 130.75ZM495.969 0H384.819C373.579 0 363.159 5.9 357.379 15.54L288.249 130.75C330.289 137.31 368.089 156.37 397.809 184.13L509.079 25.18C516.499 14.57 508.919 0 495.969 0Z" fill="#2B63EB"/>
</svg>
