<svg xmlns="http://www.w3.org/2000/svg" width="118" height="119" fill="none" xmlns:v="https://vecta.io/nano"><mask id="A" maskUnits="userSpaceOnUse" x="0" y="0" width="118" height="119"><path d="M117.7 0H0V118.949H117.7V0Z" fill="#fff"/></mask><g mask="url(#A)"><path d="M117.7 59.007c.147 32.736-26.083 59.392-58.583 59.54S.148 92.277.001 59.541 26.084.149 58.587.001s58.966 26.27 59.113 59.006z" fill="#c5c5c5"/><mask id="B" maskUnits="userSpaceOnUse" x="-1" y="-1" width="120" height="120" mask-type="alpha"><ellipse cx="59.244" cy="59.043" rx="59.475" ry="59.442" fill="#d9d9d9"/></mask><g mask="url(#B)"><path d="M98.097 67.385c3.121-1.546 6.486-3.169 9.191-5.404 1.528-1.272 2.941-2.628 3.779-4.47 2.165-4.877 2.135-13.888-3.266-16.623-8.504-2.835-18.012-3.577-26.949-3.95-8.674-10.12-11.061-.929-19.748-.929-4.864.695-6.444-.846-10.455-3.253-5.161-2.58-12.148-2.443-17.109.638l-.223.142c-4.498 2.835-8.448 7.561-10.186 12.616l-.088.268c-.294.889-.633 1.566-1.382 2.176l-.382.313-.198.16c-2.859 2.323-2.238 6.625-4.837 8.723.038.273.038.273-.122.525a18.3 18.3 0 0 0-1.179 1.831c-3.329 6.015-2.431 7.155-1.141 12.527.123.737.373 1.416.643 2.111l.086.219c1.774 4.535 4.184 7.646 6.859 11.52.906 1.316 1.812 2.581 2.427 4.073 2.038 4.959 1.818 10.742 3.832 15.687v.326c0 .517.064.972-.211 1.423l-.117.186-.135.215-.149.235c-7.629 12.1 28.671 18.409 27.472 8.713.162-3.121.654-6.205 1.199-9.279l.064-.359c.269-1.517.561-3.024.916-4.522l.115-.486.319-1.341.054-.223c.299-1.235.621-2.46.989-3.678a26.44 26.44 0 0 0 .267-.938l.23-.834.144-.496c.23-.868.464-1.728.82-2.555.324-.583.786-.807 1.394-1.027a6.15 6.15 0 0 0 1.009-.437c.552-.294 1.12-.553 1.691-.807 1.063-.472 2.105-.976 3.14-1.505l.279-.143c4.183-2.135 8.015-4.682 11.506-7.828l.643-.576a34.69 34.69 0 0 0 .879-.784 58.58 58.58 0 0 1 2.016-1.796l.519-.443c.715-.621 1.437-1.229 2.186-1.809l.387-.298a63.02 63.02 0 0 1 5.564-3.886l.22-.135c1.276-.785 2.596-1.489 3.919-2.191l.763-.405 2.359-1.219z" fill="#565656"/><path d="M50.507 39.645l.192.171c9.73 9.082 4.815 13.962-3.893 16.964l-.681.24a16.33 16.33 0 0 1-1.14.343l-.257.067c-4.941 1.24-14.626-.565-14.512-7.085l.004-.386c.019-1.015.109-1.984.329-2.973l.049-.227c.792-3.582 2.753-6.924 5.857-8.932 4.635-2.874 10.039-1.996 14.053 1.817z" fill="#030404"/><path d="M108.281 56.088c.304.315.39.493.449.93-.056.492-.237.876-.535 1.27-.369.124-.513.015-.861-.125-2.543-.844-6.206.69-8.678 1.414l-.233.068c-22.36 6.569-42.877 18.33-66.977 11.162-4.97-2.434-4.97-2.434-6.254-4.19-.069-.271-.069-.271-.098-.496.506-.464 1.044-.644 1.731-.636 3.146.544 6.456 3.416 9.382 4.503l.227.085c2.172.802 4.462 1.313 6.755 1.6l.197.026c1.544.197 3.085.212 4.64.21h.398c2.271-.002 4.512-.117 6.763-.434l.333-.046a29.21 29.21 0 0 0 1.627-.288l.872-.173c4.002-.782 7.612-2.033 11.41-3.341l.385-.133c1.271-.44 2.563-.826 3.797-1.364a9.21 9.21 0 0 1 .984-.322c.255-.081.493-.178.738-.286.986-.419 1.993-.784 2.995-1.16 5.829-2.187 11.573-4.782 17.597-6.367a12.94 12.94 0 0 0 .777-.241c9.239-3.152 9.239-3.152 11.579-1.665z" fill="#767676"/><path d="M43.168 43.979l.292.001c2.968.045 5.709.902 8.048 2.733l.282.217c6.981 5.497-4.751 9.685-9.975 10.022l-.224.015c-2.034.11-11.812-2.414-9.508-6.768.642-1.185 1.569-2.403 2.683-3.195h.196l.011.23c.131 2.143.906 4.093 2.512 5.579 1.037.849 2.583 1.961 3.946 2.153.818-.12 1.5-.912 1.989-1.533l.14-.178c1.749-2.268 2.245-4.698 2.075-7.507l-.098-.58c-.457.134-.89.285-1.314.501-2.896 1.45-3.679 2.456-3.679-1.274.857-.338 1.708-.422 2.625-.416z" fill="#fdfdfd"/><path d="M109.661 53.268c-.326.648-.685 1.131-1.392 1.375-.59.134-1.198.128-1.801.15-15.315.604-30.553 10.601-44.989 14.148l-.323.081c-6.09 1.51-12.993 2.569-19.224 1.38l-.329-.06-1.137-.232-.223-.047c-2.229-.473-4.374-1.198-6.423-2.192l-.201-.097-1.151-.574-.448-.227c-.981-.494-1.94-1.009-2.872-1.59l-.244-.151-.222-.141-.196-.125-.138-.112v-.195l.623-.243.351-.137c.297-.106.297-.106.492-.106l.125.224c.202.316.372.409.705.578l.327.168.351.174.362.183 1.061.523.271.133c15.535 7.505 33.234.333 48.338-5.345 8.623-3.24 17.372-6.274 26.59-7.251l.204-.02c.534-.058.975-.299 1.512-.269z" fill="#000"/><path d="M48.868 39.686c2.125 1.509 3.94 3.69 4.47 6.26l.098 1.332-3.03-2.474-.168-.125c-2.773-2.056-5.904-2.967-9.387-2.607-1.087.155-2.075.546-3.053 1.019l-.288.136c-1.184.594-2.227 1.395-3.18 2.294l-.458.423a16.37 16.37 0 0 0-2.456 2.904l-.165.238h-.098c-.367-5.44 3.857-10.376 9.09-11.42l.226-.05c3-.515 5.941.444 8.401 2.069z" fill="#d3d4d5"/><path d="M91.539 40.266c2.508-.071 5.374.743 7.773 1.19l.231.043 5.1.994c2.776.279 4.678 1.939 4.567 4.889-.059 2.003-.059 2.003.607 3.867.28.615.334 1.143.298 1.814-.418.161-.747.212-1.192.201l.017-.354c.058-1.69-.886-2.89-1.104-4.495-.762-5.083-2.438-4.214-7.518-5.284l-.214-.046-2.321-.425c-1.919-.284-3.48-1.103-5.269-1.746l-.294-.106-.681-.241v-.302z" fill="#000"/><path d="M88.053 42.159c1.077.34 3.334 2.678.926 1.766-.708-.25-1.37-.286-2.067.006.92 5.146-1.392.126-.98-.631l.094-.185c.452-.843 1.016-1.103 2.026-.956z" fill="#060606"/><path d="M55.562 53.731l.198.094c-2.789 2.797-6.82 5.269-10.992 5.474-.363.006-.726.006-1.089 0 .099-.189.099-.189.363-.277l.356-.093c3.937-1.06 7.507-2.916 10.944-5.086l.22-.111z" fill="#0a0a0a"/></g></g></svg>