<svg xmlns="http://www.w3.org/2000/svg" width="598" height="120" fill="none"><mask id="a" width="118" height="120" x="0" y="0" maskUnits="userSpaceOnUse"><path fill="#fff" d="M117.931.399H.23v118.95h117.701z"/></mask><g mask="url(#a)"><path fill="#c5c5c5" d="M117.931 59.406c.146 32.736-26.084 59.393-58.583 59.541S.378 92.677.231 59.941 26.314.548 58.818.4s58.965 26.27 59.113 59.006"/></g><g fill="#fff"><path d="M258.569 41.288q9.32 0 15.028 5.709 5.794 5.625 5.794 14.609c0 8.984-1.931 10.886-5.794 14.692q-5.709 5.625-15.028 5.625-9.403 0-15.196-5.625-5.709-5.709-5.709-14.692c0-8.983 1.903-10.859 5.709-14.608q5.793-5.709 15.196-5.709zm-6.716 28.21q2.519 3.022 6.716 3.022c4.197 0 5.01-1.007 6.633-3.022q2.518-3.023 2.519-7.892c.001-4.869-.841-5.877-2.519-7.892q-2.434-3.023-6.633-3.023c-4.199 0-5.037 1.007-6.716 3.023s-2.519 4.645-2.519 7.892.839 5.877 2.519 7.892m52.843-28.584q7.642 0 12.091 4.03 4.534 3.946 4.535 9.907l-.254 2.938-10.157.587q.168-.335.167-1.763 0-2.687-1.763-4.449-1.678-1.848-4.786-1.847-3.946 0-6.379 2.939-2.353 2.939-2.352 7.724 0 5.205 2.603 8.228 2.686 2.938 7.641 2.938 7.05 0 10.828-4.618l5.627 7.221q-2.184 2.77-6.633 4.785c-4.449 2.015-6.493 2.015-10.58 2.015q-9.821 0-15.531-5.541-5.624-5.625-5.624-14.608 0-9.151 5.708-14.776 5.709-5.709 14.859-5.709zm52.732 22.027c2.386 4.174 4.768 7.571 7.247 11.109l3.294 4.759c1.424 2.113-.423 4.645-2.779 3.671-9.186-3.8-15.895-10.95-20.493-17.682h-4.925v15.784H328.27V21.309h11.502v34.506h4.869q4.701 0 7.388-2.855c2.687-2.855 2.686-4.618 2.686-8.144q0-1.343-.335-3.862h10.999q.419 1.931.42 4.114c0 7.796-3.48 14.474-8.371 17.872zm219.621-22.027q9.318 0 15.027 5.709 5.796 5.625 5.794 14.608c-.002 8.983-1.929 10.886-5.794 14.692q-5.709 5.625-15.027 5.625-9.402 0-15.194-5.625-5.709-5.709-5.71-14.692c-.001-8.983 1.905-10.858 5.71-14.608q5.792-5.709 15.194-5.709m-6.714 28.209q2.517 3.022 6.714 3.022c4.197 0 5.009-1.007 6.635-3.022q2.517-3.023 2.518-7.892c.001-4.869-.841-5.877-2.518-7.892q-2.44-3.023-6.635-3.023c-4.195 0-5.037 1.008-6.714 3.023s-2.519 4.645-2.519 7.892.837 5.877 2.519 7.892m-81.844-28.209q7.645 0 12.09 4.03 4.536 3.946 4.535 9.907l-.251 2.938-10.157.587q.167-.335.167-1.763-.001-2.687-1.765-4.449-1.679-1.848-4.786-1.847-3.946 0-6.38 2.939-2.35 2.939-2.351 7.724.001 5.205 2.602 8.228 2.69 2.938 7.643 2.938 7.048 0 10.827-4.618l5.627 7.221q-2.183 2.77-6.631 4.785c-4.448 2.015-6.496 2.015-10.58 2.015-6.547 0-11.728-1.847-15.533-5.541q-5.624-5.625-5.622-14.608-.002-9.151 5.706-14.776 5.707-5.709 14.859-5.709zm-41.843 31.904q6.13 0 10.243-4.534l5.458 6.296q-2.268 2.938-6.717 4.954-4.367 2.015-10.327 2.015-9.822 0-15.616-5.625-5.709-5.625-5.709-14.692 0-8.983 5.541-14.608 5.542-5.709 14.692-5.709 8.48 0 13.35 5.205c4.87 5.205 4.869 7.975 4.869 13.517l-.337 4.198h-26.696q.753 4.115 3.608 6.549c2.855 2.434 4.451 2.435 7.641 2.435zm-2.435-23.172q-3.442 0-5.877 2.183-2.35 2.099-2.937 6.045h16.539q-.085-3.609-2.184-5.877-2.013-2.35-5.541-2.351m-36.691-8.228h9.068v38.116q-.001 8.732-6.045 14.021c-6.044 5.289-9.432 5.289-16.205 5.289q-10.829 0-17.798-4.701l1.148-7.928c3.638 2.743 11.418 3.394 16.399 3.394q5.038 0 7.976-2.518 3.022-2.435 3.023-7.22V75q-3.863 5.625-11.923 5.625-7.89 0-12.929-5.205-5.036-5.29-5.037-14.692-.001-8.984 4.786-14.357 4.785-5.457 12.929-5.457 9.486 0 13.012 7.976h.254c-.059-.616.055-1.735.334-3.358s.616-2.994 1.008-4.114M396.02 70.971q4.112 0 6.549-2.855 2.518-2.939 2.519-6.465v-1.763q-.001-3.779-2.519-6.549c-2.518-2.77-3.947-2.77-6.802-2.77q-4.028 0-6.463 2.77c-2.435 2.77-2.435 4.31-2.435 7.388q0 4.701 2.435 7.472 2.518 2.77 6.716 2.771zm145.961-7.566c2.384 4.174 4.768 7.571 7.244 11.109l3.295 4.759c1.426 2.113-.423 4.646-2.779 3.671-9.186-3.8-15.895-10.95-20.491-17.682h-4.925v15.784H512.82V21.773h11.505V56.28h4.869q4.698 0 7.388-2.855c2.69-2.855 2.686-4.618 2.686-8.144q0-1.343-.335-3.862h10.999a19.5 19.5 0 0 1 .418 4.114c0 7.795-3.48 14.474-8.369 17.872M182.477 82.317c-3.617-.087-3.639-.238-6.875-.979-2.539-.724-3.921-1.2-6.212-2.582-2.286-1.603-4.107-3.195-3.869-3.41l5.739-6.719c.902 1.128 2.729 2.498 4.106 3.195 1.146.691 5.558 1.619 7.176 1.579s2.807-.216 3.663-.761q1.36-.887 1.393-2.302.041-1.698-1.799-2.52-1.836-.894-5.975-1.984-4.435-1.097-7.383-2.23a13.35 13.35 0 0 1-5.045-3.589q-2.098-2.457-2.001-6.489a10.48 10.48 0 0 1 2.08-6.107q2.075-2.781 5.904-4.317 3.904-1.535 9.18-1.407 7.804.188 12.176 3.972c2.351 2.348 4.212 4.162 3.156 9.445l-9.997.202c.28-1.984-1.093-2.901-1.788-3.343q-1.532-1.24-4.134-1.302-2.23-.054-3.439.767-1.208.75-1.242 2.164-.04 1.698 1.798 2.591 1.911.895 5.904 1.84 4.58 1.242 7.453 2.444 2.872 1.13 4.969 3.658 2.17 2.459 2.147 6.563-.083 3.466-2.23 6.175-2.072 2.64-5.973 4.103-3.828 1.466-8.882 1.344zm26.146-52.18c.697-.929 10.919-.929 10.919-.929v51.576l-11.616-14.172s0-35.545.697-36.475"/><path d="M228.836 50.581v-8.828h-25.091v8.828zm3.483 25.788-3.949-7.434s-8.828 3.95-8.828 1.859v-6.273l-11.617 2.091s-.231 6.505 1.395 9.061 4.414 5.576 10.222 5.808c5.384.216 12.777-5.111 12.777-5.111z"/></g><mask id="b" width="119" height="119" x="0" y="0" mask-type="alpha" maskUnits="userSpaceOnUse"><ellipse cx="59.475" cy="59.442" fill="#d9d9d9" rx="59.475" ry="59.442"/></mask><g mask="url(#b)"><path fill="#565656" d="M98.327 67.785c3.121-1.546 6.487-3.169 9.191-5.404 1.529-1.272 2.942-2.628 3.779-4.47 2.166-4.877 2.135-13.888-3.265-16.623-8.505-2.835-18.013-3.577-26.949-3.95-8.674-10.12-11.061-.929-19.747-.929-4.864.695-6.444-.846-10.455-3.253-5.161-2.58-12.148-2.443-17.109.638l-.223.142c-4.498 2.835-8.448 7.561-10.186 12.616l-.088.268c-.294.889-.633 1.566-1.383 2.176l-.382.313-.198.16c-2.859 2.323-2.238 6.625-4.837 8.723.038.273.038.273-.122.525a18 18 0 0 0-1.179 1.831c-3.329 6.015-2.43 7.155-1.14 12.528.123.737.373 1.416.643 2.11l.086.219c1.774 4.535 4.184 7.646 6.859 11.521.906 1.316 1.812 2.581 2.427 4.073 2.038 4.959 1.818 10.743 3.832 15.687v.326c0 .517.064.973-.211 1.423l-.117.187-.136.214-.149.236c-7.629 12.099 28.671 18.408 27.472 8.712.162-3.121.654-6.204 1.199-9.278l.064-.36a81 81 0 0 1 .916-4.522l.114-.485.319-1.341.054-.223c.299-1.236.621-2.461.989-3.678a26 26 0 0 0 .267-.938l.23-.834.144-.496c.23-.868.464-1.728.82-2.555.324-.583.786-.807 1.394-1.027a6 6 0 0 0 1.009-.437c.552-.293 1.12-.553 1.69-.807a64 64 0 0 0 3.14-1.505l.279-.143c4.183-2.135 8.015-4.682 11.506-7.828l.643-.576a35 35 0 0 0 .878-.784 58 58 0 0 1 2.016-1.796l.519-.443a50 50 0 0 1 2.186-1.809l.387-.298a63 63 0 0 1 5.564-3.886l.22-.135c1.276-.785 2.596-1.489 3.919-2.191l.763-.405z"/><path fill="#030404" d="m50.737 40.045.192.171c9.73 9.082 4.815 13.962-3.893 16.964l-.681.24a16 16 0 0 1-1.14.343l-.257.067c-4.94 1.24-14.626-.565-14.512-7.085l.004-.386c.019-1.015.109-1.984.329-2.973l.049-.227c.792-3.582 2.752-6.924 5.857-8.932 4.635-2.874 10.039-1.996 14.053 1.817z"/><path fill="#767676" d="M108.512 56.487c.303.315.389.493.449.93-.056.492-.237.876-.535 1.27-.369.124-.514.015-.861-.125-2.544-.844-6.207.69-8.679 1.414l-.233.068c-22.36 6.569-42.877 18.33-66.977 11.162-4.97-2.434-4.97-2.434-6.254-4.19-.069-.271-.069-.271-.098-.496.507-.464 1.045-.644 1.731-.636 3.146.544 6.456 3.416 9.382 4.503l.227.085c2.172.802 4.462 1.313 6.755 1.6l.197.026c1.544.197 3.085.212 4.64.21h.398c2.271-.002 4.512-.117 6.763-.434l.333-.046a29 29 0 0 0 1.627-.288l.872-.173c4.002-.782 7.612-2.033 11.41-3.341l.385-.133c1.271-.44 2.563-.826 3.797-1.364a9 9 0 0 1 .984-.322c.255-.081.493-.178.738-.286.986-.419 1.993-.784 2.995-1.16 5.829-2.187 11.573-4.782 17.596-6.367.264-.073.518-.151.777-.241 9.239-3.152 9.239-3.152 11.579-1.665z"/><path fill="#fdfdfd" d="m43.399 44.378.293.001c2.968.045 5.709.902 8.048 2.733l.282.217c6.981 5.497-4.751 9.685-9.975 10.022l-.224.015c-2.034.11-11.812-2.414-9.508-6.768.642-1.185 1.569-2.403 2.683-3.195h.196l.011.231c.131 2.143.906 4.093 2.512 5.579 1.037.849 2.582 1.961 3.946 2.153.818-.12 1.5-.912 1.989-1.533l.14-.178c1.749-2.268 2.245-4.698 2.075-7.507l-.098-.58c-.457.134-.89.285-1.314.501-2.896 1.45-3.679 2.456-3.679-1.274.857-.338 1.708-.422 2.625-.416z"/><path fill="#000" d="M109.891 53.668c-.325.648-.685 1.131-1.391 1.375-.591.134-1.199.128-1.802.15-15.314.604-30.552 10.601-44.989 14.148l-.323.081c-6.09 1.51-12.993 2.569-19.224 1.38l-.329-.06-1.137-.232-.223-.047a28 28 0 0 1-6.423-2.192l-.201-.097-1.151-.574-.448-.227a36 36 0 0 1-2.872-1.59l-.244-.151-.222-.141-.196-.125-.138-.112v-.195l.623-.243.35-.137c.297-.106.297-.106.492-.106l.125.224c.202.316.372.409.705.578l.327.168.351.174.362.183 1.061.523.271.133c15.535 7.505 33.234.333 48.338-5.345 8.623-3.24 17.372-6.274 26.59-7.251l.204-.02c.533-.058.975-.299 1.511-.269z"/><path fill="#d3d4d5" d="M49.099 40.085c2.125 1.508 3.94 3.69 4.47 6.26l.098 1.332-3.03-2.474-.168-.125c-2.773-2.056-5.904-2.967-9.387-2.607-1.087.155-2.075.546-3.053 1.019l-.288.136c-1.184.594-2.227 1.395-3.18 2.294l-.458.423a16.4 16.4 0 0 0-2.456 2.904l-.165.238h-.098c-.367-5.44 3.857-10.376 9.09-11.42l.226-.05c3-.515 5.941.443 8.401 2.069z"/><path fill="#000" d="M91.77 40.666c2.509-.071 5.374.743 7.773 1.19l.231.043 5.1.994c2.775.279 4.678 1.939 4.566 4.889-.059 2.003-.059 2.003.607 3.867.281.615.335 1.143.298 1.814a2.8 2.8 0 0 1-1.192.202l.018-.354c.058-1.69-.887-2.89-1.104-4.495-.763-5.083-2.438-4.214-7.519-5.284l-.214-.046-2.32-.425c-1.919-.284-3.48-1.103-5.269-1.746l-.294-.106-.681-.241z"/><path fill="#060606" d="M88.283 42.559c1.077.34 3.334 2.678.926 1.766-.708-.25-1.369-.286-2.067.005.92 5.146-1.392.126-.98-.631l.094-.185c.452-.843 1.017-1.103 2.026-.956z"/><path fill="#0a0a0a" d="m55.793 54.13.198.094c-2.789 2.797-6.82 5.269-10.992 5.474q-.544.009-1.089 0c.099-.189.099-.189.363-.277l.356-.093c3.937-1.06 7.507-2.916 10.944-5.086l.22-.111z"/></g></svg>