<svg xmlns="http://www.w3.org/2000/svg" width="1287" height="256" fill="none" xmlns:v="https://vecta.io/nano"><g clip-path="url(#C)"><mask id="A" maskUnits="userSpaceOnUse" x="0" y="0" width="254" height="256"><path d="M253.311 0H0V256H253.311V0Z" fill="#fff"/></mask><g mask="url(#A)"><path d="M253.311 126.993c.316 70.454-56.136 127.823-126.08 128.141C57.279 255.453.318 198.597.001 128.143S56.137.32 126.09.001c69.943-.309 126.904 56.537 127.221 126.992z" fill="#c5c5c5"/></g><g fill="#fff"><path d="M555.992 88c13.37 0 24.151 4.096 32.341 12.287 8.315 8.07 12.47 18.551 12.47 31.44s-4.155 23.429-12.47 31.62c-8.19 8.071-18.971 12.106-32.341 12.106-13.492 0-24.393-4.035-32.705-12.106-8.191-8.191-12.287-18.731-12.287-31.62s4.096-23.37 12.287-31.44C531.599 92.096 542.5 88 555.992 88zm-14.456 60.712c3.614 4.336 8.433 6.504 14.456 6.504s10.781-2.168 14.274-6.504c3.612-4.337 5.422-9.999 5.422-16.985s-1.81-12.649-5.422-16.985c-3.493-4.337-8.252-6.505-14.274-6.505s-10.842 2.168-14.456 6.505-5.42 9.998-5.42 16.985 1.806 12.648 5.42 16.985zm113.725-61.517c10.965 0 19.635 2.891 26.02 8.673 6.505 5.662 9.76 12.769 9.76 21.322l-.545 6.324-21.86 1.264c.24-.481.36-1.746.36-3.794 0-3.855-1.265-7.047-3.795-9.576-2.41-2.651-5.84-3.976-10.3-3.976-5.66 0-10.24 2.108-13.73 6.325-3.375 4.216-5.06 9.757-5.06 16.623 0 7.468 1.865 13.371 5.6 17.707 3.855 4.216 9.335 6.324 16.445 6.324 10.115 0 17.885-3.312 23.305-9.938l12.11 15.54c-3.135 3.975-7.89 7.408-14.275 10.299s-13.975 4.336-22.77 4.336c-14.09 0-25.235-3.975-33.425-11.925-8.07-8.071-12.105-18.551-12.105-31.44 0-13.13 4.095-23.73 12.285-31.801 8.19-8.191 18.85-12.287 31.98-12.287zm113.49 47.404c5.135 8.984 10.26 16.294 15.595 23.908l7.09 10.243c3.065 4.548-.91 9.998-5.98 7.9-19.77-8.178-34.21-23.566-44.105-38.054h-10.6v33.969h-24.755V45h24.755v74.263h10.48c6.745 0 12.045-2.048 15.9-6.144s5.78-9.938 5.78-17.527c0-1.927-.24-4.697-.72-8.311h23.67c.6 2.77.905 5.722.905 8.854 0 16.777-7.49 31.15-18.015 38.464zm472.659-47.404c13.37 0 24.15 4.096 32.34 12.287 8.32 8.071 12.47 18.551 12.47 31.44s-4.15 23.429-12.47 31.62c-8.19 8.071-18.97 12.106-32.34 12.106-13.49 0-24.39-4.035-32.7-12.106-8.19-8.191-12.29-18.731-12.29-31.62s4.1-23.369 12.29-31.44c8.31-8.191 19.21-12.287 32.7-12.287zm-14.45 60.712c3.61 4.336 8.43 6.504 14.45 6.504s10.78-2.168 14.28-6.504c3.61-4.337 5.42-9.999 5.42-16.985s-1.81-12.648-5.42-16.985c-3.5-4.336-8.26-6.505-14.28-6.505s-10.84 2.169-14.45 6.505c-3.62 4.337-5.42 9.998-5.42 16.985s1.8 12.648 5.42 16.985zm-176.14-60.712c10.97 0 19.64 2.891 26.02 8.673 6.51 5.662 9.76 12.769 9.76 21.322l-.54 6.324-21.86 1.264c.24-.481.36-1.746.36-3.794 0-3.855-1.27-7.047-3.8-9.576-2.41-2.651-5.84-3.976-10.3-3.976-5.66 0-10.24 2.108-13.73 6.325-3.37 4.216-5.06 9.757-5.06 16.623 0 7.468 1.87 13.371 5.6 17.707 3.86 4.216 9.34 6.324 16.45 6.324 10.11 0 17.88-3.312 23.3-9.938l12.11 15.54c-3.13 3.975-7.89 7.408-14.27 10.299-6.39 2.891-13.98 4.336-22.77 4.336-14.09 0-25.24-3.975-33.43-11.925-8.07-8.071-12.1-18.551-12.1-31.44 0-13.13 4.09-23.73 12.28-31.801 8.19-8.191 18.85-12.287 31.98-12.287zm-90.051 68.662c8.795 0 16.14-3.253 22.045-9.757l11.745 13.551c-3.255 4.216-8.07 7.77-14.455 10.661-6.265 2.891-13.675 4.336-22.225 4.336-14.095 0-25.295-4.035-33.61-12.106-8.19-8.07-12.285-18.611-12.285-31.62 0-12.889 3.975-23.369 11.925-31.44 7.95-8.191 18.49-12.287 31.62-12.287 12.165 0 21.745 3.734 28.73 11.203s10.48 17.165 10.48 29.091l-.725 9.034h-57.455c1.08 5.903 3.67 10.601 7.765 14.094s9.58 5.24 16.445 5.24zm-5.24-49.87c-4.94 0-9.155 1.566-12.65 4.698-3.37 3.011-5.48 7.348-6.32 13.009h35.595c-.12-5.179-1.69-9.395-4.7-12.648-2.89-3.373-6.865-5.059-11.925-5.059zM876.561 88.28h19.515v82.032c0 12.528-4.34 22.586-13.01 30.175s-20.3 11.383-34.875 11.383c-15.54 0-28.305-3.373-38.305-10.118l2.47-17.063c7.83 5.903 24.575 7.305 35.295 7.305 7.225 0 12.95-1.807 17.165-5.42 4.335-3.494 6.505-8.673 6.505-15.539v-10.48c-5.54 8.07-14.095 12.106-25.66 12.106-11.32 0-20.595-3.734-27.825-11.203-7.225-7.589-10.84-18.129-10.84-31.62 0-12.889 3.43-23.189 10.3-30.898 6.865-7.83 16.14-11.745 27.825-11.745 13.61 0 22.945 5.722 28.005 17.166h.545c-.125-1.325.12-3.734.72-7.228s1.325-6.445 2.17-8.854zm-24.755 63.602c5.9 0 10.6-2.048 14.095-6.144 3.61-4.216 5.42-8.853 5.42-13.913v-3.794c0-5.421-1.81-10.119-5.42-14.094s-8.495-5.962-14.64-5.962c-5.78 0-10.415 1.987-13.91 5.962s-5.24 9.276-5.24 15.901c0 6.745 1.745 12.106 5.24 16.081 3.615 3.975 8.43 5.963 14.455 5.963zm314.134-16.283c5.13 8.984 10.26 16.294 15.59 23.908l7.09 10.243c3.07 4.548-.91 9.998-5.98 7.9-19.77-8.178-34.21-23.566-44.1-38.054h-10.6v33.969h-24.76V46h24.76v74.263h10.48c6.74 0 12.04-2.048 15.9-6.144 3.85-4.095 5.78-9.938 5.78-17.527 0-1.927-.24-4.697-.72-8.311h23.67c.6 2.77.9 5.722.9 8.854 0 16.777-7.49 31.15-18.01 38.464zM392.226 176.3c-7.785-.187-7.832-.512-14.796-2.107-5.464-1.559-8.44-2.583-13.37-5.557-4.919-3.45-8.838-6.876-8.326-7.34l12.35-14.46c1.942 2.427 5.873 5.377 8.838 6.877 2.465 1.487 11.962 3.485 15.444 3.398s6.04-.465 7.882-1.639c1.951-1.273 2.951-2.925 2.999-4.955.059-2.436-1.232-4.244-3.871-5.424-2.636-1.282-6.923-2.705-12.861-4.269-6.364-1.574-11.66-3.174-15.889-4.799-4.227-1.726-7.846-4.301-10.858-7.724-3.01-3.525-4.445-8.18-4.306-13.965.117-4.871 1.609-9.253 4.476-13.144 2.977-3.991 7.212-7.088 12.707-9.291 5.601-2.201 12.187-3.211 19.758-3.029 11.197.269 19.931 3.119 26.203 8.55 5.06 5.053 9.067 8.957 6.794 20.327l-21.517.435c.603-4.269-2.351-6.244-3.848-7.194-2.198-1.779-5.163-2.714-8.896-2.803-3.199-.077-5.666.473-7.401 1.65-1.733 1.076-2.624 2.628-2.673 4.658-.058 2.436 1.231 4.294 3.868 5.576 2.743 1.285 6.979 2.605 12.708 3.961 6.573 1.783 11.919 3.536 16.039 5.259 4.122 1.622 7.687 4.247 10.694 7.873 3.116 3.527 4.657 8.236 4.622 14.124-.119 4.973-1.719 9.403-4.8 13.29-2.972 3.787-7.257 6.731-12.855 8.83-5.492 2.103-11.864 3.067-19.115 2.893zM448.496 64c1.5-2 23.5-2 23.5-2v111l-25-30.5s0-76.5 1.5-78.5z"/><path d="M491.996 108V89h-54v19h54zm7.501 55.5l-8.5-16s-19 8.5-19 4V138l-25 4.5s-.499 14 3.001 19.5 9.499 12 21.999 12.5c11.588.464 27.5-11 27.5-11z"/></g><mask id="B" maskUnits="userSpaceOnUse" x="-1" y="-1" width="257" height="256" mask-type="alpha"><ellipse cx="127.5" cy="127.07" rx="128" ry="127.93" fill="#d9d9d9"/></mask><g mask="url(#B)"><path d="M211.115 145.024c6.717-3.327 13.961-6.819 19.782-11.63 3.289-2.737 6.33-5.657 8.132-9.62 4.661-10.497 4.596-29.89-7.027-35.774-18.303-6.101-38.767-7.699-58-8.5-18.668-21.779-23.805-1.999-42.5-2-10.468 1.495-13.869-1.822-22.5-7-11.107-5.553-26.146-5.259-36.822 1.373l-.481.306C62.02 78.28 53.517 88.451 49.778 99.33l-.189.576c-.632 1.913-1.361 3.37-2.975 4.684l-.821.674-.425.345c-6.152 4.998-4.817 14.257-10.41 18.774.083.588.083.588-.262 1.13a39.33 39.33 0 0 0-2.538 3.939c-7.164 12.946-5.231 15.399-2.455 26.962.265 1.586.803 3.047 1.384 4.542l.185.471c3.818 9.759 9.004 16.456 14.761 24.794 1.949 2.833 3.9 5.556 5.223 8.766 4.386 10.672 3.912 23.119 8.248 33.761v.701c.001 1.113.139 2.093-.453 3.063l-.253.401-.292.461-.321.507c-16.419 26.041 61.704 39.619 59.125 18.751.349-6.717 1.407-13.353 2.579-19.969l.138-.774c.578-3.264 1.206-6.506 1.97-9.732l.247-1.044.686-2.886.117-.48c.644-2.66 1.336-5.296 2.128-7.916.203-.67.397-1.341.576-2.018l.494-1.796.309-1.067c.495-1.869.999-3.72 1.765-5.499.696-1.256 1.691-1.738 2.999-2.21.77-.249 1.458-.561 2.173-.94 1.188-.631 2.409-1.19 3.638-1.737 2.287-1.015 4.53-2.101 6.758-3.239l.6-.307c9.002-4.594 17.25-10.076 24.763-16.847l1.384-1.24a73.61 73.61 0 0 0 1.89-1.687c1.42-1.322 2.861-2.61 4.34-3.866l1.116-.954c1.539-1.337 3.092-2.646 4.705-3.894l.832-.641c3.862-2.999 7.813-5.796 11.975-8.364l.472-.291c2.746-1.69 5.587-3.205 8.434-4.715l1.643-.872 5.076-2.623z" fill="#565656"/><path d="M108.691 85.322l.413.368c20.94 19.547 10.363 30.048-8.38 36.509l-1.464.517c-.811.277-1.625.521-2.453.737l-.553.145c-10.633 2.669-31.478-1.216-31.232-15.247l.009-.83c.041-2.183.235-4.269.708-6.398l.105-.488c1.704-7.71 5.924-14.901 12.604-19.223 9.976-6.186 21.604-4.297 30.243 3.91z" fill="#030404"/><path d="M233.034 120.711c.653.678.838 1.061.966 2.001-.121 1.058-.51 1.886-1.151 2.734-.794.267-1.105.031-1.853-.27-5.474-1.815-13.357 1.486-18.677 3.044l-.501.146c-48.123 14.138-92.278 39.451-144.147 24.023-10.696-5.238-10.696-5.238-13.459-9.018-.149-.583-.149-.583-.212-1.067 1.09-.999 2.248-1.387 3.725-1.368 6.77 1.17 13.895 7.352 20.192 9.69l.489.183c4.675 1.727 9.603 2.827 14.538 3.445l.424.055c3.324.426 6.639.456 9.986.452h.857c4.888-.004 9.711-.253 14.555-.934l.716-.1a62.08 62.08 0 0 0 3.501-.62l1.876-.373c8.613-1.683 16.383-4.374 24.557-7.189l.829-.288c2.736-.946 5.516-1.777 8.173-2.936.694-.285 1.398-.487 2.118-.693.549-.174 1.061-.383 1.589-.615 2.121-.901 4.288-1.688 6.446-2.497 12.545-4.708 24.907-10.291 37.871-13.703a27.6 27.6 0 0 0 1.671-.519c19.884-6.784 19.884-6.784 24.92-3.583z" fill="#767676"/><path d="M92.901 94.649l.629.003c6.387.098 12.287 1.942 17.322 5.882l.606.466c15.024 11.831-10.225 20.844-21.468 21.568l-.483.032c-4.377.238-25.421-5.195-20.463-14.566 1.381-2.55 3.376-5.172 5.774-6.877h.421l.024.497c.282 4.611 1.95 8.808 5.406 12.006 2.232 1.828 5.558 4.22 8.492 4.634 1.761-.259 3.229-1.963 4.28-3.3l.302-.383c3.764-4.882 4.831-10.111 4.466-16.156l-.211-1.247c-.983.288-1.916.614-2.828 1.079-6.233 3.121-7.919 5.286-7.919-2.742 1.845-.728 3.675-.908 5.65-.896z" fill="#fdfdfd"/><path d="M236 114.643c-.701 1.396-1.474 2.434-2.995 2.958-1.271.288-2.579.276-3.877.323-32.96 1.301-65.754 22.815-96.824 30.448l-.694.174c-13.108 3.248-27.964 5.528-41.373 2.969l-.707-.129-2.448-.5-.479-.1c-4.798-1.017-9.415-2.578-13.823-4.718l-.433-.208-2.478-1.236-.964-.489c-2.111-1.063-4.176-2.172-6.181-3.422l-.526-.326-.477-.304-.422-.268-.297-.242v-.419l1.341-.523.754-.295c.639-.229.639-.229 1.06-.229l.27.481c.434.68.801.881 1.517 1.244l.705.362.755.375.78.393 2.283 1.125.584.286c33.435 16.151 71.525.716 104.033-11.503 18.557-6.973 37.386-13.502 57.226-15.606l.439-.043c1.148-.124 2.098-.644 3.253-.578z" fill="#000"/><path d="M105.17 85.41c4.573 3.246 8.479 7.942 9.62 13.473.105.955.168 1.908.21 2.867-2.169-1.79-4.256-3.649-6.521-5.325l-.362-.27c-5.969-4.426-12.706-6.385-20.202-5.61-2.339.334-4.465 1.176-6.571 2.193l-.62.294c-2.549 1.279-4.792 3.002-6.845 4.938l-.987.911c-2.016 1.874-3.764 3.975-5.286 6.25l-.356.511h-.21c-.79-11.708 8.302-22.331 19.563-24.578l.486-.108c6.456-1.108 12.785.954 18.081 4.454z" fill="#d3d4d5"/><path d="M197 86.659c5.399-.153 11.566 1.599 16.729 2.562l.497.092c3.729.695 7.214 1.766 10.976 2.139 5.974.6 10.068 4.172 9.828 10.523-.127 4.312-.127 4.312 1.307 8.323.603 1.325.72 2.46.641 3.904-.899.348-1.607.455-2.565.434l.037-.763c.125-3.636-1.908-6.219-2.376-9.674-1.64-10.939-5.247-9.07-16.181-11.372l-.46-.098c-1.658-.352-3.317-.669-4.994-.916-4.131-.612-7.489-2.374-11.341-3.757l-.633-.228-1.465-.518v-.651z" fill="#000"/><path d="M189.502 90.735c2.318.733 7.175 5.763 1.993 3.802-1.523-.538-2.947-.615-4.447.012 1.98 11.076-2.996.27-2.109-1.358l.202-.398c.974-1.815 2.188-2.375 4.361-2.056z" fill="#060606"/><path d="M119.574 115.637l.426.203c-6.003 6.02-14.679 11.34-23.656 11.78-.782.014-1.562.013-2.344 0 .213-.406.213-.406.781-.597l.766-.2c8.473-2.282 16.155-6.275 23.552-10.946l.474-.24z" fill="#0a0a0a"/></g></g><defs><clipPath id="C"><path fill="#fff" d="M0 0h1287v256H0z"/></clipPath></defs></svg>