<svg xmlns="http://www.w3.org/2000/svg" width="598" height="120" fill="none" xmlns:v="https://vecta.io/nano"><mask id="A" maskUnits="userSpaceOnUse" x="0" y="0" width="118" height="120"><path d="M117.931.399H.23v118.95h117.701V.399z" fill="#fff"/></mask><g mask="url(#A)"><path d="M117.931 59.406c.146 32.736-26.084 59.393-58.583 59.541S.378 92.677.231 59.941 26.314.548 58.818.4s58.965 26.27 59.113 59.006z" fill="#c5c5c5"/></g><g fill="#fff"><path d="M258.569 41.288c6.213 0 11.222 1.903 15.028 5.709 3.863 3.75 5.794 8.62 5.794 14.609s-1.931 10.886-5.794 14.692c-3.806 3.75-8.815 5.625-15.028 5.625-6.269 0-11.334-1.875-15.196-5.625-3.806-3.806-5.709-8.703-5.709-14.692s1.903-10.859 5.709-14.608c3.862-3.806 8.927-5.709 15.196-5.709zm-6.716 28.21c1.679 2.015 3.918 3.022 6.716 3.022s5.01-1.007 6.633-3.022c1.678-2.015 2.519-4.646 2.519-7.892s-.841-5.877-2.519-7.892c-1.623-2.015-3.834-3.023-6.633-3.023s-5.037 1.007-6.716 3.023-2.519 4.645-2.519 7.892.839 5.877 2.519 7.892zm52.843-28.584c5.095 0 9.124 1.343 12.091 4.03 3.022 2.631 4.535 5.933 4.535 9.907l-.254 2.938-10.157.587c.112-.224.167-.811.167-1.763 0-1.791-.587-3.274-1.763-4.449-1.12-1.232-2.713-1.847-4.786-1.847-2.63 0-4.758.98-6.379 2.939-1.569 1.959-2.352 4.534-2.352 7.724 0 3.47.867 6.213 2.603 8.228 1.791 1.959 4.337 2.938 7.641 2.938 4.7 0 8.31-1.539 10.828-4.618l5.627 7.221c-1.457 1.847-3.666 3.442-6.633 4.785s-6.493 2.015-10.58 2.015c-6.547 0-11.725-1.847-15.531-5.541-3.749-3.75-5.624-8.62-5.624-14.608 0-6.101 1.903-11.026 5.708-14.776 3.806-3.806 8.759-5.709 14.859-5.709zm52.732 22.027c2.386 4.174 4.768 7.571 7.247 11.109l3.294 4.759c1.424 2.113-.423 4.645-2.779 3.671-9.186-3.8-15.895-10.95-20.493-17.682h-4.925v15.784H328.27V21.309h11.502v34.506h4.869c3.134 0 5.597-.952 7.388-2.855s2.686-4.618 2.686-8.144c0-.895-.112-2.183-.335-3.862h10.999c.278 1.287.42 2.659.42 4.114 0 7.796-3.48 14.474-8.371 17.872zm219.621-22.027c6.212 0 11.221 1.903 15.027 5.709 3.865 3.75 5.794 8.62 5.794 14.608s-1.929 10.886-5.794 14.692c-3.806 3.75-8.815 5.625-15.027 5.625-6.268 0-11.333-1.875-15.194-5.625-3.805-3.806-5.71-8.703-5.71-14.692s1.905-10.858 5.71-14.608c3.861-3.806 8.926-5.709 15.194-5.709zm-6.714 28.209c1.677 2.015 3.917 3.022 6.714 3.022s5.009-1.007 6.635-3.022c1.677-2.015 2.518-4.646 2.518-7.892s-.841-5.877-2.518-7.892c-1.626-2.015-3.838-3.023-6.635-3.023s-5.037 1.008-6.714 3.023-2.519 4.645-2.519 7.892.837 5.877 2.519 7.892zm-81.844-28.209c5.097 0 9.126 1.343 12.09 4.03 3.025 2.631 4.535 5.933 4.535 9.907l-.251 2.938-10.157.587c.111-.224.167-.811.167-1.763 0-1.791-.59-3.274-1.765-4.449-1.12-1.232-2.714-1.847-4.786-1.847-2.63 0-4.758.98-6.38 2.939-1.566 1.959-2.351 4.534-2.351 7.724 0 3.47.869 6.213 2.602 8.228 1.794 1.959 4.34 2.938 7.643 2.938 4.698 0 8.308-1.539 10.827-4.618l5.627 7.221c-1.455 1.847-3.666 3.442-6.631 4.785s-6.496 2.015-10.58 2.015c-6.547 0-11.728-1.847-15.533-5.541-3.75-3.75-5.622-8.62-5.622-14.608 0-6.101 1.9-11.026 5.706-14.776 3.805-3.806 8.758-5.709 14.859-5.709zm-41.843 31.904c4.087 0 7.5-1.511 10.243-4.534l5.458 6.296c-1.513 1.959-3.75 3.61-6.717 4.954-2.911 1.343-6.354 2.015-10.327 2.015-6.549 0-11.753-1.875-15.616-5.625-3.806-3.75-5.709-8.647-5.709-14.692 0-5.989 1.847-10.858 5.541-14.608 3.694-3.806 8.592-5.709 14.692-5.709 5.653 0 10.104 1.735 13.35 5.205s4.869 7.975 4.869 13.517l-.337 4.198h-26.696c.502 2.743 1.705 4.926 3.608 6.549s4.451 2.435 7.641 2.435zm-2.435-23.172c-2.295 0-4.253.728-5.877 2.183-1.566 1.399-2.547 3.414-2.937 6.045h16.539c-.056-2.406-.785-4.365-2.184-5.877-1.342-1.567-3.189-2.351-5.541-2.351zm-36.691-8.228h9.068v38.116c0 5.821-2.017 10.495-6.045 14.021s-9.432 5.289-16.205 5.289c-7.22 0-13.151-1.567-17.798-4.701l1.148-7.928c3.638 2.743 11.418 3.394 16.399 3.394 3.358 0 6.018-.84 7.976-2.518 2.014-1.624 3.023-4.03 3.023-7.22V75c-2.575 3.75-6.55 5.625-11.923 5.625-5.26 0-9.57-1.735-12.929-5.205-3.357-3.526-5.037-8.424-5.037-14.692 0-5.989 1.594-10.775 4.786-14.357 3.19-3.638 7.499-5.457 12.929-5.457 6.324 0 10.661 2.659 13.012 7.976h.254c-.059-.616.055-1.735.334-3.358s.616-2.994 1.008-4.114zM396.02 70.971c2.741 0 4.925-.952 6.549-2.855 1.678-1.959 2.519-4.114 2.519-6.465v-1.763c0-2.519-.841-4.702-2.519-6.549s-3.947-2.77-6.802-2.77c-2.686 0-4.839.923-6.463 2.77s-2.435 4.31-2.435 7.388c0 3.134.811 5.625 2.435 7.472 1.679 1.847 3.917 2.771 6.716 2.771zm145.961-7.566c2.384 4.174 4.768 7.571 7.244 11.109l3.295 4.759c1.426 2.113-.423 4.646-2.779 3.671-9.186-3.8-15.895-10.95-20.491-17.682h-4.925v15.784H512.82V21.773h11.505V56.28h4.869c3.132 0 5.595-.952 7.388-2.855s2.686-4.618 2.686-8.144c0-.895-.112-2.183-.335-3.862h10.999c.278 1.287.418 2.659.418 4.114 0 7.795-3.48 14.474-8.369 17.872zM182.477 82.317c-3.617-.087-3.639-.238-6.875-.979-2.539-.724-3.921-1.2-6.212-2.582-2.286-1.603-4.107-3.195-3.869-3.41l5.739-6.719c.902 1.128 2.729 2.498 4.106 3.195 1.146.691 5.558 1.619 7.176 1.579s2.807-.216 3.663-.761c.906-.591 1.371-1.359 1.393-2.302.027-1.132-.572-1.972-1.799-2.52-1.224-.596-3.216-1.257-5.975-1.984-2.957-.731-5.418-1.475-7.383-2.23a13.35 13.35 0 0 1-5.045-3.589c-1.399-1.638-2.066-3.801-2.001-6.489a10.48 10.48 0 0 1 2.08-6.107c1.383-1.854 3.351-3.293 5.904-4.317 2.602-1.023 5.663-1.492 9.18-1.407 5.203.125 9.261 1.449 12.176 3.972 2.351 2.348 4.212 4.162 3.156 9.445l-9.997.202c.28-1.984-1.093-2.901-1.788-3.343-1.022-.827-2.399-1.261-4.134-1.302-1.486-.036-2.633.22-3.439.767-.805.5-1.219 1.221-1.242 2.164-.027 1.132.572 1.995 1.798 2.591 1.274.597 3.242 1.21 5.904 1.84 3.054.828 5.538 1.643 7.453 2.444 1.915.754 3.571 1.973 4.969 3.658 1.447 1.639 2.163 3.827 2.147 6.563-.055 2.311-.799 4.369-2.23 6.175-1.381 1.76-3.372 3.127-5.973 4.103-2.552.977-5.513 1.425-8.882 1.344zm26.146-52.18c.697-.929 10.919-.929 10.919-.929v51.576l-11.616-14.172s0-35.545.697-36.475z"/><path d="M228.836 50.581v-8.828h-25.091v8.828h25.091zm3.483 25.788l-3.949-7.434s-8.828 3.95-8.828 1.859v-6.273l-11.617 2.091s-.231 6.505 1.395 9.061 4.414 5.576 10.222 5.808c5.384.216 12.777-5.111 12.777-5.111z"/></g><mask id="B" maskUnits="userSpaceOnUse" x="0" y="0" width="119" height="119" mask-type="alpha"><ellipse cx="59.475" cy="59.442" rx="59.475" ry="59.442" fill="#d9d9d9"/></mask><g mask="url(#B)"><path d="M98.327 67.785c3.121-1.546 6.487-3.169 9.191-5.404 1.529-1.272 2.942-2.628 3.779-4.47 2.166-4.877 2.135-13.888-3.265-16.623-8.505-2.835-18.013-3.577-26.949-3.95-8.674-10.12-11.061-.929-19.747-.929-4.864.695-6.444-.846-10.455-3.253-5.161-2.58-12.148-2.443-17.109.638l-.223.142c-4.498 2.835-8.448 7.561-10.186 12.616l-.088.268c-.294.889-.633 1.566-1.383 2.176l-.382.313-.198.16c-2.859 2.323-2.238 6.625-4.837 8.723.038.273.038.273-.122.525a18.33 18.33 0 0 0-1.179 1.831c-3.329 6.015-2.43 7.155-1.14 12.528.123.737.373 1.416.643 2.11l.086.219c1.774 4.535 4.184 7.646 6.859 11.521.906 1.316 1.812 2.581 2.427 4.073 2.038 4.959 1.818 10.743 3.832 15.687v.326c0 .517.064.973-.211 1.423l-.117.187-.136.214-.149.236c-7.629 12.099 28.671 18.408 27.472 8.712.162-3.121.654-6.204 1.199-9.278l.064-.36c.269-1.516.561-3.023.916-4.522l.114-.485.319-1.341.054-.223c.299-1.236.621-2.461.989-3.678a26.23 26.23 0 0 0 .267-.938l.23-.834.144-.496c.23-.868.464-1.728.82-2.555.324-.583.786-.807 1.394-1.027.358-.116.678-.261 1.009-.437.552-.293 1.12-.553 1.69-.807a63.92 63.92 0 0 0 3.14-1.505l.279-.143c4.183-2.135 8.015-4.682 11.506-7.828l.643-.576a34.71 34.71 0 0 0 .878-.784c.66-.615 1.329-1.213 2.016-1.796l.519-.443a50.18 50.18 0 0 1 2.186-1.809l.387-.298c1.794-1.394 3.63-2.693 5.564-3.886l.22-.135c1.276-.785 2.596-1.489 3.919-2.191l.763-.405 2.359-1.219z" fill="#565656"/><path d="M50.737 40.045l.192.171c9.73 9.082 4.815 13.962-3.893 16.964l-.681.24c-.377.129-.755.242-1.14.343l-.257.067c-4.94 1.24-14.626-.565-14.512-7.085l.004-.386c.019-1.015.109-1.984.329-2.973l.049-.227c.792-3.582 2.752-6.924 5.857-8.932 4.635-2.874 10.039-1.996 14.053 1.817z" fill="#030404"/><path d="M108.512 56.487c.303.315.389.493.449.93-.056.492-.237.876-.535 1.27-.369.124-.514.015-.861-.125-2.544-.844-6.207.69-8.679 1.414l-.233.068c-22.36 6.569-42.877 18.33-66.977 11.162-4.97-2.434-4.97-2.434-6.254-4.19-.069-.271-.069-.271-.098-.496.507-.464 1.045-.644 1.731-.636 3.146.544 6.456 3.416 9.382 4.503l.227.085c2.172.802 4.462 1.313 6.755 1.6l.197.026c1.544.197 3.085.212 4.64.21h.398c2.271-.002 4.512-.117 6.763-.434l.333-.046c.546-.08 1.086-.177 1.627-.288l.872-.173c4.002-.782 7.612-2.033 11.41-3.341l.385-.133c1.271-.44 2.563-.826 3.797-1.364.322-.132.649-.227.984-.322.255-.081.493-.178.738-.286.986-.419 1.993-.784 2.995-1.16 5.829-2.187 11.573-4.782 17.596-6.367.264-.073.518-.151.777-.241 9.239-3.152 9.239-3.152 11.579-1.665z" fill="#767676"/><path d="M43.399 44.378l.293.001c2.968.045 5.709.902 8.048 2.733l.282.217c6.981 5.497-4.751 9.685-9.975 10.022l-.224.015c-2.034.11-11.812-2.414-9.508-6.768.642-1.185 1.569-2.403 2.683-3.195h.196l.011.231c.131 2.143.906 4.093 2.512 5.579 1.037.849 2.582 1.961 3.946 2.153.818-.12 1.5-.912 1.989-1.533l.14-.178c1.749-2.268 2.245-4.698 2.075-7.507l-.098-.58c-.457.134-.89.285-1.314.501-2.896 1.45-3.679 2.456-3.679-1.274.857-.338 1.708-.422 2.625-.416z" fill="#fdfdfd"/><path d="M109.891 53.668c-.325.648-.685 1.131-1.391 1.375-.591.134-1.199.128-1.802.15-15.314.604-30.552 10.601-44.989 14.148l-.323.081c-6.09 1.51-12.993 2.569-19.224 1.38l-.329-.06-1.137-.232-.223-.047c-2.229-.473-4.374-1.198-6.423-2.192l-.201-.097-1.151-.574-.448-.227c-.981-.494-1.94-1.009-2.872-1.59l-.244-.151-.222-.141-.196-.125-.138-.112v-.195l.623-.243.35-.137c.297-.106.297-.106.492-.106l.125.224c.202.316.372.409.705.578l.327.168.351.174.362.183 1.061.523.271.133c15.535 7.505 33.234.333 48.338-5.345 8.623-3.24 17.372-6.274 26.59-7.251l.204-.02c.533-.058.975-.299 1.511-.269z" fill="#000"/><path d="M49.099 40.085c2.125 1.508 3.94 3.69 4.47 6.26l.098 1.332-3.03-2.474-.168-.125c-2.773-2.056-5.904-2.967-9.387-2.607-1.087.155-2.075.546-3.053 1.019l-.288.136c-1.184.594-2.227 1.395-3.18 2.294l-.458.423c-.937.871-1.749 1.847-2.456 2.904l-.165.238h-.098c-.367-5.44 3.857-10.376 9.09-11.42l.226-.05c3-.515 5.941.443 8.401 2.069z" fill="#d3d4d5"/><path d="M91.77 40.666c2.509-.071 5.374.743 7.773 1.19l.231.043 5.1.994c2.775.279 4.678 1.939 4.566 4.889-.059 2.003-.059 2.003.607 3.867.281.615.335 1.143.298 1.814-.418.162-.747.212-1.192.202l.018-.354c.058-1.69-.887-2.89-1.104-4.495-.763-5.083-2.438-4.214-7.519-5.284l-.214-.046-2.32-.425c-1.919-.284-3.48-1.103-5.269-1.746l-.294-.106-.681-.241v-.302z" fill="#000"/><path d="M88.283 42.559c1.077.34 3.334 2.678.926 1.766-.708-.25-1.369-.286-2.067.005.92 5.146-1.392.126-.98-.631l.094-.185c.452-.843 1.017-1.103 2.026-.956z" fill="#060606"/><path d="M55.793 54.13l.198.094c-2.789 2.797-6.82 5.269-10.992 5.474-.363.006-.726.006-1.089 0 .099-.189.099-.189.363-.277l.356-.093c3.937-1.06 7.507-2.916 10.944-5.086l.22-.111z" fill="#0a0a0a"/></g></svg>