<svg width="1287" height="256" viewBox="0 0 1287 256" fill="none" xmlns="http://www.w3.org/2000/svg">
<mask id="mask0_2433_285" style="mask-type:luminance" maskUnits="userSpaceOnUse" x="0" y="0" width="254" height="256">
<path d="M253.311 0H0V256H253.311V0Z" fill="white"/>
</mask>
<g mask="url(#mask0_2433_285)">
<path d="M253.311 126.993C253.627 197.447 197.175 254.816 127.231 255.134C57.2785 255.453 0.317986 198.597 0.00132571 128.143C-0.315334 57.6885 56.1365 0.320184 126.09 0.00125591C196.033 -0.308008 252.994 56.5385 253.311 126.993Z" fill="#C5C5C5"/>
<path d="M190.891 81.9195C181.698 79.2425 172.179 75.4345 162.526 71.5975C161.969 69.1625 159.83 66.1275 155.492 62.407C149.188 56.898 137.347 57.043 127.118 59.4785C115.823 56.8015 104.664 55.8445 93.955 58.4345C6.38386 82.741 56.0325 142.013 23.877 201.614C28.4542 211.385 78.937 258.329 149.121 253.117C149.121 253.117 124.719 194.057 179.789 165.701C224.457 142.709 256.728 100.012 190.881 81.9095L190.891 81.9195Z" fill="#565656"/>
<path d="M133.182 96.1301C133.182 109.757 122.214 120.794 108.694 120.794C95.1731 120.794 84.2051 109.757 84.2051 96.1301C84.2051 82.5031 95.1731 71.4761 108.694 71.4761C122.214 71.4761 133.182 82.5126 133.182 96.1301Z" fill="white"/>
<path d="M221.539 131.626C201.704 145.707 179.125 156.386 147.124 156.386C132.145 156.386 129.103 140.353 119.2 148.21C114.085 152.269 96.0647 161.344 81.7572 160.658C67.3252 159.962 44.2858 151.515 37.8086 120.773C35.2466 151.515 33.9415 174.169 22.4746 200.128C50.6232 241.497 99.7027 262.079 149.12 253.128C143.813 215.794 176.208 179.233 194.46 160.523C201.368 153.439 214.611 141.87 221.539 131.626Z" fill="#565656"/>
<path d="M119.015 116.079C126.951 116.079 133.385 107.072 133.385 95.9613C133.385 84.8504 126.951 75.8433 119.015 75.8433C111.078 75.8433 104.645 84.8504 104.645 95.9613C104.645 107.072 111.078 116.079 119.015 116.079Z" fill="#0D1217"/>
<path d="M124.764 59.4303C132.604 62.5643 161.235 72.1003 173.622 75.8433C160.974 54.8573 141.808 56.0683 124.764 59.4303Z" fill="#464646"/>
<path d="M119.014 95.9589L101.77 84.4629V107.455L119.014 95.9589Z" fill="white"/>
</g>
<path d="M555.992 88C569.362 88 580.143 92.0955 588.333 100.287C596.648 108.357 600.803 118.838 600.803 131.727C600.803 144.616 596.648 155.156 588.333 163.347C580.143 171.418 569.362 175.453 555.992 175.453C542.5 175.453 531.599 171.418 523.287 163.347C515.096 155.156 511 144.616 511 131.727C511 118.838 515.096 108.357 523.287 100.287C531.599 92.0955 542.5 88 555.992 88ZM541.536 148.712C545.15 153.048 549.969 155.216 555.992 155.216C562.014 155.216 566.773 153.048 570.266 148.712C573.878 144.375 575.688 138.713 575.688 131.727C575.688 124.74 573.878 119.078 570.266 114.742C566.773 110.405 562.014 108.237 555.992 108.237C549.969 108.237 545.15 110.405 541.536 114.742C537.922 119.078 536.116 124.74 536.116 131.727C536.116 138.713 537.922 144.375 541.536 148.712Z" fill="white"/>
<path d="M655.263 87.1953C666.228 87.1953 674.898 90.0863 681.283 95.8683C687.788 101.53 691.043 108.637 691.043 117.19L690.498 123.514L668.638 124.778C668.878 124.297 668.998 123.032 668.998 120.984C668.998 117.129 667.733 113.937 665.203 111.408C662.793 108.757 659.363 107.432 654.903 107.432C649.243 107.432 644.663 109.54 641.173 113.757C637.798 117.973 636.113 123.514 636.113 130.38C636.113 137.848 637.978 143.751 641.713 148.087C645.568 152.303 651.048 154.411 658.158 154.411C668.273 154.411 676.043 151.099 681.463 144.473L693.573 160.013C690.438 163.988 685.683 167.421 679.298 170.312C672.913 173.203 665.323 174.648 656.528 174.648C642.438 174.648 631.293 170.673 623.103 162.723C615.033 154.652 610.998 144.172 610.998 131.283C610.998 118.153 615.093 107.553 623.283 99.4823C631.473 91.2908 642.133 87.1953 655.263 87.1953Z" fill="white"/>
<path d="M768.753 134.599C773.888 143.583 779.013 150.893 784.348 158.507C786.668 161.81 789.023 165.17 791.438 168.75C794.503 173.298 790.528 178.748 785.458 176.65C765.688 168.472 751.248 153.084 741.353 138.596H730.753V172.565H705.998V45H730.753V119.263H741.233C747.978 119.263 753.278 117.215 757.133 113.119C760.988 109.024 762.913 103.181 762.913 95.5924C762.913 93.6654 762.673 90.8949 762.193 87.2809H785.863C786.463 90.0514 786.768 93.0029 786.768 96.1349C786.768 112.912 779.278 127.285 768.753 134.599Z" fill="white"/>
<path d="M1241.41 87.1953C1254.78 87.1953 1265.56 91.2908 1273.75 99.4823C1282.07 107.553 1286.22 118.033 1286.22 130.922C1286.22 143.811 1282.07 154.351 1273.75 162.542C1265.56 170.613 1254.78 174.648 1241.41 174.648C1227.92 174.648 1217.02 170.613 1208.71 162.542C1200.52 154.351 1196.42 143.811 1196.42 130.922C1196.42 118.033 1200.52 107.553 1208.71 99.4823C1217.02 91.2908 1227.92 87.1953 1241.41 87.1953ZM1226.96 147.907C1230.57 152.243 1235.39 154.411 1241.41 154.411C1247.43 154.411 1252.19 152.243 1255.69 147.907C1259.3 143.57 1261.11 137.908 1261.11 130.922C1261.11 123.935 1259.3 118.274 1255.69 113.937C1252.19 109.601 1247.43 107.432 1241.41 107.432C1235.39 107.432 1230.57 109.601 1226.96 113.937C1223.34 118.274 1221.54 123.935 1221.54 130.922C1221.54 137.908 1223.34 143.57 1226.96 147.907Z" fill="white"/>
<path d="M1050.82 87.1953C1061.79 87.1953 1070.46 90.0863 1076.84 95.8683C1083.35 101.53 1086.6 108.637 1086.6 117.19L1086.06 123.514L1064.2 124.778C1064.44 124.297 1064.56 123.032 1064.56 120.984C1064.56 117.129 1063.29 113.937 1060.76 111.408C1058.35 108.757 1054.92 107.432 1050.46 107.432C1044.8 107.432 1040.22 109.54 1036.73 113.757C1033.36 117.973 1031.67 123.514 1031.67 130.38C1031.67 137.848 1033.54 143.751 1037.27 148.087C1041.13 152.303 1046.61 154.411 1053.72 154.411C1063.83 154.411 1071.6 151.099 1077.02 144.473L1089.13 160.013C1086 163.988 1081.24 167.421 1074.86 170.312C1068.47 173.203 1060.88 174.648 1052.09 174.648C1038 174.648 1026.85 170.673 1018.66 162.723C1010.59 154.652 1006.56 144.172 1006.56 131.283C1006.56 118.153 1010.65 107.553 1018.84 99.4823C1027.03 91.2908 1037.69 87.1953 1050.82 87.1953Z" fill="white"/>
<path d="M960.769 155.857C969.564 155.857 976.909 152.604 982.814 146.1L994.559 159.651C991.304 163.867 986.489 167.421 980.104 170.312C973.839 173.203 966.429 174.648 957.879 174.648C943.784 174.648 932.584 170.613 924.269 162.542C916.079 154.472 911.984 143.931 911.984 130.922C911.984 118.033 915.959 107.553 923.909 99.4823C931.859 91.2908 942.399 87.1953 955.529 87.1953C967.694 87.1953 977.274 90.9298 984.259 98.3983C991.244 105.866 994.739 115.563 994.739 127.489L994.014 136.523H936.559C937.639 142.426 940.229 147.124 944.324 150.617C948.424 154.11 953.904 155.857 960.769 155.857ZM955.529 105.987C950.589 105.987 946.374 107.553 942.879 110.685C939.509 113.696 937.399 118.033 936.559 123.694H972.154C972.034 118.515 970.464 114.299 967.454 111.046C964.564 107.673 960.589 105.987 955.529 105.987Z" fill="white"/>
<path d="M876.563 88.2798H896.078V170.312C896.078 182.84 891.738 192.898 883.068 200.487C874.393 208.076 862.768 211.87 848.193 211.87C832.653 211.87 819.888 208.497 809.888 201.752L812.358 184.689C820.188 190.592 836.933 191.994 847.653 191.994C854.878 191.994 860.603 190.187 864.818 186.574C869.153 183.08 871.323 177.901 871.323 171.035V160.555C865.783 168.625 857.228 172.661 845.663 172.661C834.343 172.661 825.068 168.927 817.838 161.458C810.613 153.869 806.998 143.329 806.998 129.838C806.998 116.949 810.428 106.649 817.298 98.9403C824.163 91.1103 833.438 87.1953 845.123 87.1953C858.733 87.1953 868.068 92.9173 873.128 104.361H873.673C873.548 103.036 873.793 100.627 874.393 97.1333C874.998 93.6398 875.718 90.6888 876.563 88.2798ZM851.808 151.882C857.708 151.882 862.408 149.834 865.903 145.738C869.513 141.522 871.323 136.885 871.323 131.825V128.031C871.323 122.61 869.513 117.912 865.903 113.937C862.288 109.962 857.408 107.975 851.263 107.975C845.483 107.975 840.848 109.962 837.353 113.937C833.858 117.912 832.113 123.213 832.113 129.838C832.113 136.583 833.858 141.944 837.353 145.919C840.968 149.894 845.783 151.882 851.808 151.882Z" fill="white"/>
<path d="M1165.94 135.599C1171.07 144.583 1176.2 151.893 1181.53 159.507C1183.85 162.81 1186.21 166.17 1188.62 169.75C1191.69 174.298 1187.71 179.748 1182.64 177.65C1162.87 169.472 1148.43 154.084 1138.54 139.596H1127.94V173.565H1103.18V46H1127.94V120.263H1138.42C1145.16 120.263 1150.46 118.215 1154.32 114.119C1158.17 110.024 1160.1 104.181 1160.1 96.5924C1160.1 94.6654 1159.86 91.8949 1159.38 88.2809H1183.05C1183.65 91.0514 1183.95 94.0029 1183.95 97.1349C1183.95 113.912 1176.46 128.285 1165.94 135.599Z" fill="white"/>
<path d="M392.228 176.3C384.443 176.113 384.396 175.788 377.432 174.193C371.968 172.634 368.992 171.61 364.062 168.636C359.143 165.186 355.224 161.76 355.736 161.296L368.086 146.836C370.028 149.263 373.959 152.213 376.924 153.713C379.389 155.2 388.886 157.198 392.368 157.111C395.85 157.023 398.408 156.646 400.25 155.472C402.201 154.199 403.201 152.547 403.249 150.517C403.308 148.081 402.017 146.273 399.378 145.093C396.742 143.811 392.455 142.388 386.517 140.824C380.153 139.25 374.857 137.65 370.628 136.025C366.401 134.299 362.782 131.724 359.77 128.301C356.76 124.776 355.325 120.121 355.464 114.336C355.581 109.465 357.073 105.083 359.94 101.192C362.917 97.2014 367.152 94.1043 372.647 91.9006C378.248 89.6994 384.834 88.6897 392.405 88.8714C403.602 89.1401 412.336 91.9899 418.608 97.4209C423.668 102.474 427.675 106.378 425.402 117.748L403.885 118.183C404.488 113.914 401.534 111.939 400.037 110.989C397.839 109.21 394.874 108.275 391.141 108.186C387.942 108.109 385.475 108.659 383.74 109.836C382.007 110.912 381.116 112.464 381.067 114.494C381.009 116.93 382.298 118.788 384.935 120.07C387.678 121.355 391.914 122.675 397.643 124.031C404.216 125.814 409.562 127.567 413.682 129.29C417.804 130.912 421.369 133.537 424.376 137.163C427.492 140.69 429.033 145.399 428.998 151.287C428.879 156.26 427.279 160.69 424.198 164.577C421.226 168.364 416.941 171.308 411.343 173.407C405.851 175.51 399.479 176.474 392.228 176.3Z" fill="white"/>
<path d="M448.498 64C449.998 62 471.998 62 471.998 62V173L446.998 142.5C446.998 142.5 446.998 66 448.498 64Z" fill="white"/>
<rect x="491.998" y="89" width="19" height="54" transform="rotate(90 491.998 89)" fill="white"/>
<path d="M499.497 163.5L490.997 147.5C490.997 147.5 471.997 156 471.997 151.5V138L446.997 142.5C446.997 142.5 446.498 156.5 449.998 162C453.498 167.5 459.497 174 471.997 174.5C483.585 174.964 499.497 163.5 499.497 163.5Z" fill="white"/>
</svg>
