<svg xmlns="http://www.w3.org/2000/svg" width="256" height="256" fill="none" viewBox="0 0 256 256"><rect width="256" height="256" fill="url(#a)" rx="128"/><path stroke="#fff" stroke-linecap="round" stroke-linejoin="round" stroke-width="9" d="m112.75 158 11.812 11.812M144.25 95l-11.812-11.812M152.125 47.75c-14.159 15.734-19.829 31.46-22.105 47.195M163.938 114.688l7.874 7.874M167.875 79.25l-22.767-22.767M49.75 150.125c52.503-47.25 104.997 0 157.5-47.25M191.5 102.875l7.017 7.017M58.483 143.108l7.017 7.017M85.188 130.438l7.874 7.874M89.125 173.75l22.767 22.767M104.875 205.25c14.159-15.734 19.829-31.461 22.105-47.195"/><defs><linearGradient id="a" x1="26" x2="37.593" y1="-201.5" y2="298.611" gradientUnits="userSpaceOnUse"><stop stop-color="#ff87ff"/><stop offset=".5" stop-color="#b43aed"/><stop offset="1" stop-color="#6800a1"/></linearGradient></defs></svg>