<svg xmlns="http://www.w3.org/2000/svg" width="256" height="256" fill="none" viewBox="0 0 256 256"><rect width="256" height="256" fill="url(#a)" rx="128"/><path stroke="#fff" stroke-linecap="round" stroke-linejoin="round" stroke-width="9" d="M128.5 105.375v8.439M155.333 65.125v36.628M188.875 106.167V78.542a13.417 13.417 0 0 0-13.417-13.417H81.542a13.416 13.416 0 0 0-13.417 13.417v93.916a13.415 13.415 0 0 0 13.417 13.417h38.573"/><path stroke="#fff" stroke-linecap="round" stroke-linejoin="round" stroke-width="9" d="M195.583 162.396c0 16.764-11.739 25.149-25.693 30.013a3.35 3.35 0 0 1-2.247-.034c-13.987-4.83-25.726-13.215-25.726-29.986v-23.472a3.356 3.356 0 0 1 3.354-3.348c6.708 0 15.094-4.025 20.93-9.123a4.03 4.03 0 0 1 5.098-.007c5.87 5.132 14.222 9.123 20.93 9.123a3.355 3.355 0 0 1 3.354 3.355zM68.125 145.625h46.958M68.125 105.375h81.453M101.667 145.625v40.25M101.667 65.125v40.25"/><defs><linearGradient id="a" x1="-14" x2="11" y1="-202.5" y2="355.5" gradientUnits="userSpaceOnUse"><stop stop-color="#eb4d4d"/><stop offset=".5" stop-color="#9e0000"/><stop offset="1" stop-color="#520000"/></linearGradient></defs></svg>