<svg xmlns="http://www.w3.org/2000/svg" width="256" height="256" fill="none" viewBox="0 0 256 256"><circle cx="128" cy="128" r="128" fill="#fff"/><path fill="#13a3d7" d="M65 127.5V51l42.202.105 42.203.106 3.61.902c17.503 4.374 30.341 15.527 36.623 31.819 1.512 3.921 2.899 10.275 3.154 14.448l.208 3.403h-25.503l-.199-1.629c-.659-5.414-2.371-9.727-5.438-13.704-3.068-3.978-7.684-7.204-12.799-8.943l-2.751-.935-27.762-.097-27.763-.097v102.239h25.442V204H65z"/><path fill="#13a3d7" d="M135 191.328v-12.672l4.599-.231c2.529-.127 5.587-.46 6.795-.74 7.419-1.718 14.604-7.318 17.95-13.989 2.798-5.581 2.697-4.701 2.843-24.797l.129-17.899H193l-.131 19.441-.131 19.441-.898 3.597c-2.523 10.108-6.902 17.843-14.156 25.003-5.888 5.812-12.393 9.857-20.07 12.479-5.733 1.959-9.507 2.61-16.454 2.837L135 204z"/></svg>