<svg xmlns="http://www.w3.org/2000/svg" width="256" height="256" fill="none" viewBox="0 0 256 256"><rect width="256" height="256" fill="url(#a)" rx="128"/><path stroke="#fff" stroke-linecap="round" stroke-linejoin="round" stroke-width="9" d="M147 133h14c3.713 0 7.274 1.475 9.899 4.101A14 14 0 0 1 175 147v14c0 3.713 1.475 7.274 4.101 9.899a13.996 13.996 0 0 0 19.798 0A14 14 0 0 0 203 161v-48.986a14 14 0 0 0-4.13-9.94L175 77M147 189V77a14 14 0 0 0-14-14H84a14 14 0 0 0-14 14v112M63 189h91M70 91h77"/><path stroke="#fff" stroke-linecap="round" stroke-linejoin="round" stroke-width="9" d="m112 119-14 21h21l-14 21"/><defs><linearGradient id="a" x1="31.5" x2="34" y1="-190" y2="273" gradientUnits="userSpaceOnUse"><stop stop-color="#ffe15e"/><stop offset=".5" stop-color="#b59411"/><stop offset="1" stop-color="#694800"/></linearGradient></defs></svg>