<svg xmlns="http://www.w3.org/2000/svg" width="256" height="256" fill="none" viewBox="0 0 256 256"><circle cx="128" cy="128" r="128" fill="#fff"/><path fill="#002e57" d="M46 92.75h34.471v10.058H58.684v19.063h21.787v10.207H58.684v29.871H46zM99.872 102.808H84.65V92.75h42.679v10.058h-14.922v59.141H99.872z"/><mask id="a" width="40" height="73" x="129" y="91" maskUnits="userSpaceOnUse" style="mask-type:luminance"><path fill="#fff" d="M129.119 163.3h39.694V92h-39.694z"/></mask><g mask="url(#a)"><path fill="#002e57" d="M130.611 148.589c2.388 1.501 7.909 4.203 14.475 4.203 5.522 0 10.446-3.002 10.446-10.057 0-4.953-2.835-7.055-8.953-10.507l-6.417-3.453c-6.715-3.752-11.043-9.306-11.043-18.162 0-12.46 9.998-18.764 21.489-18.764 7.312 0 12.386 1.802 14.326 2.552l-.597 10.508c-2.985-1.201-7.014-3.003-12.834-3.003-6.267 0-9.401 3.453-9.401 8.106 0 5.254 3.283 7.205 7.163 9.307l7.461 4.203c7.909 4.503 11.789 8.856 11.789 18.613 0 14.11-9.849 20.865-22.981 20.865-6.864 0-12.237-1.051-15.519-3.153"/></g><mask id="b" width="36" height="71" x="175" y="92" maskUnits="userSpaceOnUse" style="mask-type:luminance"><path fill="#fff" d="M175.529 162.25h34.621v-69.5h-34.621z"/></mask><g mask="url(#b)"><path fill="#002e57" d="M175.529 92.75h34.472v10.058h-21.937v19.213h21.937v10.057h-21.937v19.814h21.937v10.057h-34.472z"/></g></svg>