<svg xmlns="http://www.w3.org/2000/svg" width="256" height="256" fill="none" viewBox="0 0 256 256"><rect width="256" height="256" fill="url(#a)" rx="128"/><path stroke="#fff" stroke-linecap="round" stroke-linejoin="round" stroke-width="7" d="M117.25 101a7.25 7.25 0 0 0-14.5 0v7.25a7.25 7.25 0 0 0 14.5 0zM88.25 64.75a7.25 7.25 0 1 0-14.5 0V72a7.25 7.25 0 1 0 14.5 0zM73.75 115.5h14.5M102.75 79.25h14.5M73.75 93.75H81v21.75M102.75 57.5H110v21.75M117.25 177.333c0-3.958-3.246-7.166-7.25-7.166s-7.25 3.208-7.25 7.166v7.167c0 3.958 3.246 7.167 7.25 7.167s7.25-3.209 7.25-7.167zM88.25 141.5c0-3.958-3.246-7.167-7.25-7.167s-7.25 3.209-7.25 7.167v7.167c0 3.958 3.246 7.166 7.25 7.166s7.25-3.208 7.25-7.166zM73.75 191.667h14.5M102.75 155.833h14.5M73.75 170.167H81v21.5M102.75 134.333H110v21.5M178.25 100a7.25 7.25 0 0 0-14.5 0v7.25a7.25 7.25 0 0 0 14.5 0zM149.25 63.75a7.25 7.25 0 0 0-14.5 0V71a7.25 7.25 0 0 0 14.5 0zM134.75 114.5h14.5M163.75 78.25h14.5M134.75 92.75H142v21.75M163.75 56.5H171v21.75M178.25 176.333c0-3.958-3.246-7.166-7.25-7.166s-7.25 3.208-7.25 7.166v7.167c0 3.958 3.246 7.167 7.25 7.167s7.25-3.209 7.25-7.167zM149.25 140.5c0-3.958-3.246-7.167-7.25-7.167s-7.25 3.209-7.25 7.167v7.167c0 3.958 3.246 7.166 7.25 7.166s7.25-3.208 7.25-7.166zM134.75 190.667h14.5M163.75 154.833h14.5M134.75 169.167H142v21.5M163.75 133.333H171v21.5"/><defs><linearGradient id="a" x1="-125" x2="-119" y1="-453.5" y2="334.5" gradientUnits="userSpaceOnUse"><stop stop-color="#7ebbff"/><stop offset=".5" stop-color="#326ef2"/><stop offset="1" stop-color="#0022a6"/></linearGradient></defs></svg>