<svg xmlns="http://www.w3.org/2000/svg" width="256" height="256" fill="none" viewBox="0 0 256 256"><rect width="256" height="256" fill="url(#a)" rx="128"/><path fill="#fff" stroke="#fff" stroke-width=".5" d="M195.629 108.815c4.208 0 7.621 3.396 7.621 7.586a7.7 7.7 0 0 1-1.489 4.526c-16.55 22.685-27.286 45.716-33.346 68.412-.611 2.289-2.676 3.911-5.06 3.911-3.344 0-5.821-3.118-4.926-6.342 6.228-22.445 17.027-46.036 33.697-68.258a.11.11 0 0 0-.089-.175H147.83c-2.678 0-4.851-2.161-4.851-4.829 0-2.669 2.173-4.831 4.851-4.831zm-82.968-56.053a6.2 6.2 0 0 1 2.236.568l.347.175.004.002.173.099.007.003.169.104.004.002a6.2 6.2 0 0 1 1.8 1.742l.195.305.002.004.098.172.004.005h-.001l.03.055.001.002 15.315 28.936.092.147a1.6 1.6 0 0 0 1.005.651 1.602 1.602 0 0 0 1.315-.332l22.174-18.904.002-.002.065-.055.003-.002a6.21 6.21 0 0 1 7.075-.514l.004.002.2.124.009.006.195.132.004.002a6.2 6.2 0 0 1 2.207 2.834 6.14 6.14 0 0 1 .191 3.815l-.005.016-8.867 31.905-.051.183h-12.506c-4.83 0-8.744 3.897-8.744 8.702s3.914 8.701 8.744 8.701h7.669l-.088.316-.877 3.157a8.74 8.74 0 0 1-3.12 4.615 8.82 8.82 0 0 1-5.283 1.808h-64.36a8.82 8.82 0 0 1-5.288-1.806h-.001a8.75 8.75 0 0 1-3.124-4.616L56.97 72.861l-.001-.003-.003-.011-.001-.007h-.001a6.14 6.14 0 0 1 .191-3.81 6.17 6.17 0 0 1 2.41-2.97l.004-.003.2-.124.005-.003a6.2 6.2 0 0 1 3.251-.867h.006l.236.008h.01v.001l.234.017h.005a6.2 6.2 0 0 1 3.14 1.205l.005.004.186.144.005.004.066.055.003.003 22.16 18.898.147.109a1.611 1.611 0 0 0 1.176.229l.171-.044a1.6 1.6 0 0 0 .927-.757L106.816 56l.001-.002.03-.055.001-.002a6.2 6.2 0 0 1 2.274-2.334 6.2 6.2 0 0 1 3.15-.857z"/><path fill="#fff" d="M72.388 67.093c0 6.093-4.94 11.031-11.032 11.031s-11.03-4.938-11.03-11.03c0-6.093 4.938-11.032 11.03-11.032 6.093 0 11.032 4.939 11.032 11.031"/><path fill="#7240df" d="M70.486 67.093a9.13 9.13 0 1 0-18.259 0 9.13 9.13 0 0 0 18.259 0m3.803 0c0 7.143-5.79 12.933-12.933 12.933s-12.933-5.79-12.933-12.933 5.79-12.933 12.933-12.933S74.29 59.95 74.29 67.093"/><path fill="#fff" d="M175.471 64.43c0 6.093-4.938 11.032-11.031 11.032-6.092 0-11.031-4.94-11.031-11.031 0-6.093 4.939-11.031 11.031-11.031s11.031 4.938 11.031 11.03"/><path fill="#7240df" d="M173.569 64.43a9.129 9.129 0 1 0-18.258 0 9.129 9.129 0 1 0 18.258 0m3.804 0c0 7.143-5.79 12.934-12.933 12.934s-12.933-5.79-12.933-12.933 5.791-12.933 12.933-12.933c7.143 0 12.933 5.79 12.933 12.933"/><path fill="#fff" d="M122.471 51.43c0 6.093-4.938 11.032-11.031 11.032-6.092 0-11.031-4.94-11.031-11.031 0-6.093 4.939-11.031 11.031-11.031s11.031 4.938 11.031 11.03"/><path fill="#7240df" d="M120.569 51.43a9.129 9.129 0 1 0-18.258 0 9.129 9.129 0 1 0 18.258 0m3.804 0c0 7.143-5.79 12.934-12.933 12.934s-12.933-5.79-12.933-12.933 5.791-12.933 12.933-12.933c7.143 0 12.933 5.79 12.933 12.933"/><defs><linearGradient id="a" x1="-75" x2="-82.5" y1="-311" y2="371.5" gradientUnits="userSpaceOnUse"><stop stop-color="#c593ff"/><stop offset=".5" stop-color="#7846e5"/><stop offset="1" stop-color="#2c0099"/></linearGradient></defs></svg>