<svg xmlns="http://www.w3.org/2000/svg" width="256" height="256" fill="none" viewBox="0 0 256 256"><circle cx="128" cy="128" r="128" fill="#003e70"/><path fill="#fff" d="m75.508 109-6.495 23.98-7.99-23.98H50.02L40 146h9.14l6.954-25.699L64.624 146h9.995l10.02-37zm130.361 0-10.02 37h9.131L215 109zm-115.755 0-10.025 37h9.13l10.026-37zm102.217 21.81 1.863-6.881h-15.557l2.006-7.41h17.426l2.038-7.519H173.55l-9.797 36.172-7.206-19.051h-2.836L170.81 109h-10.778l-15.96 15.709L148.327 109h-9.132l-9.851 36.378-7.282-19.257h-2.836L136.325 109h-10.778l-15.96 15.709L113.842 109h-9.128l-10.026 37h9.133l5.384-19.879h3.23L119.007 146h19.299l5.384-19.879h3.23L153.492 146h36.852l2.034-7.509h-17.683l2.08-7.681z"/></svg>