<svg xmlns="http://www.w3.org/2000/svg" width="256" height="256" fill="none" viewBox="0 0 256 256"><rect width="256" height="256" fill="url(#a)" rx="128"/><path fill="#fff" stroke="#fff" stroke-linecap="round" stroke-linejoin="round" stroke-width="9" d="M128.5 133.057c3.621 0 6.557-3.18 6.557-7.103 0-3.924-2.936-7.104-6.557-7.104s-6.557 3.18-6.557 7.104 2.936 7.103 6.557 7.103"/><path stroke="#fff" stroke-linecap="round" stroke-linejoin="round" stroke-width="9" d="M185.284 182.24c14.127-13.935.139-50.521-31.162-81.684-31.439-31.026-68.349-44.891-82.406-30.888-14.127 13.934-.139 50.52 31.162 81.683 31.439 31.026 68.349 44.892 82.406 30.889"/><path stroke="#fff" stroke-linecap="round" stroke-linejoin="round" stroke-width="9" d="M154.122 151.351c31.301-31.163 45.289-67.75 31.162-81.683-14.057-14.003-50.967-.138-82.406 30.888-31.3 31.163-45.289 67.749-31.162 81.684 14.057 14.003 50.967.137 82.406-30.889"/><defs><linearGradient id="a" x1="-64" x2="-48" y1="-320" y2="306.5" gradientUnits="userSpaceOnUse"><stop stop-color="#ffc063"/><stop offset=".5" stop-color="#f97316"/><stop offset="1" stop-color="#ad2700"/></linearGradient></defs></svg>