<svg xmlns="http://www.w3.org/2000/svg" width="256" height="256" fill="none" viewBox="0 0 256 256"><rect width="256" height="256" fill="url(#a)" rx="128"/><path stroke="#fff" stroke-linecap="round" stroke-linejoin="round" stroke-width="9" d="M131.5 78V57.5H102M48.58 130.25h14.75M196.671 130.25h14.75"/><path fill="#fff" d="M174.26 76.694c13.164 0 23.559 10.823 23.559 23.827v59.305c0 13.004-10.394 23.827-23.559 23.827H86.906c-13.165 0-23.56-10.823-23.56-23.827v-59.305c0-13.004 10.396-23.826 23.56-23.827zm-85.29 7.251c-10.158 0-18.371 8.254-18.371 18.409v55.638c0 10.156 8.213 18.409 18.37 18.409h83.227c10.158 0 18.371-8.253 18.371-18.409v-55.638c0-10.155-8.213-18.409-18.371-18.409zm83.226 9c5.164 0 9.371 4.202 9.371 9.409v55.638c0 5.208-4.207 9.409-9.371 9.409H88.97c-5.164 0-9.371-4.201-9.371-9.409v-55.638c0-5.208 4.207-9.409 9.37-9.409zM117.044 147.5a4.5 4.5 0 0 0 0 9h28.929a4.5 4.5 0 0 0 0-9zm-8.044-44a4.5 4.5 0 0 0-4.5 4.5v24.572a4.5 4.5 0 1 0 9 0V108a4.5 4.5 0 0 0-4.5-4.5m45 0a4.5 4.5 0 0 0-4.5 4.5v24.572a4.5 4.5 0 1 0 9 0V108a4.5 4.5 0 0 0-4.5-4.5"/><defs><linearGradient id="a" x1="-85" x2="-96" y1="-473" y2="360.5" gradientUnits="userSpaceOnUse"><stop stop-color="#55deff"/><stop offset=".5" stop-color="#0891b2"/><stop offset="1" stop-color="#004566"/></linearGradient></defs></svg>