<svg xmlns="http://www.w3.org/2000/svg" width="256" height="256" fill="none" viewBox="0 0 256 256"><rect width="256" height="256" fill="url(#a)" rx="128"/><path stroke="#fff" stroke-linecap="round" stroke-linejoin="round" stroke-width="9" d="M129 181v14M129 55v14M164 181v14M164 55v14M59 125h14M59 160h14M59 90h14M185 125h14M185 160h14M185 90h14M94 181v14M94 55v14M171 69H87c-7.732 0-14 6.268-14 14v84c0 7.732 6.268 14 14 14h84c7.732 0 14-6.268 14-14V83c0-7.732-6.268-14-14-14"/><path fill="#fff" stroke="#fff" stroke-linecap="round" stroke-linejoin="round" stroke-width="9" d="M150 97h-42a7 7 0 0 0-7 7v42a7 7 0 0 0 7 7h42a7 7 0 0 0 7-7v-42a7 7 0 0 0-7-7"/><defs><linearGradient id="a" x1="-65.5" x2="-76.5" y1="-218.5" y2="360.5" gradientUnits="userSpaceOnUse"><stop stop-color="#5cc3bb"/><stop offset=".5" stop-color="#0f766e"/><stop offset="1" stop-color="#002a22"/></linearGradient></defs></svg>