<svg xmlns="http://www.w3.org/2000/svg" width="256" height="256" fill="none" viewBox="0 0 256 256"><circle cx="128" cy="128" r="128" fill="#72ca31"/><path fill="#000" fill-rule="evenodd" d="M37 115.632v-6.963h8.687v6.963zm0 31.597v-28.534h8.687v28.523zm154.547-12.002h-19.503c.358 3.031 2.577 5.356 6.852 5.356a9.24 9.24 0 0 0 6.953-2.892l5.198 5.398c-2.668 3.053-6.895 4.911-12.124 4.911-9.958 0-15.814-5.832-15.814-15.231 0-8.681 5.651-14.995 14.601-14.995s14.154 5.543 14.154 13.806a17 17 0 0 1-.317 3.647m-8.334-5.462c-.195-2.962-2.134-5.072-5.471-5.072s-5.271 2.089-5.682 5.072zm23.12 18.208c-4.291 0-9.536-1.14-13.41-4.889l4.955-5.409a12.35 12.35 0 0 0 8.434 3.427c3.026 0 4.344-.798 4.344-2.019 0-.926-.659-1.451-2.315-1.955-1.444-.439-3.721-.824-5.64-1.397-4.169-1.237-8.313-2.999-8.313-8.982-.01-5.537 4.439-8.932 11.866-8.932 4.112 0 8.75.851 12.651 4.364l-5.008 5.275c-2.187-2.142-5.239-2.913-7.711-2.913-2.236 0-3.474.798-3.474 1.907 0 .921.659 1.462 2.345 2.019 1.466.476 3.891.942 5.799 1.494 4.001 1.146 8.144 2.876 8.144 8.569.021 6.367-5.277 9.447-12.667 9.447zM72.57 119.814a11.08 11.08 0 0 0-8.824-3.941c-3.663 0-5.577 1.338-5.577 3.245 0 2.581 2.894 3.476 8.434 5.056 6.083 1.74 12.994 3.705 12.994 11.851s-6.663 11.911-15.092 11.911c-7.11 0-12.914-2.062-16.646-7.182l6.483-5.463c2.473 3.38 6.231 4.756 10.058 4.756 4.549 0 6.21-1.607 6.21-3.347 0-2.528-2.636-3.144-9.02-4.948-6.568-1.859-12.271-4.429-12.271-12.318C49.319 112.509 54.9 108 64.03 108c5.798 0 11.117 1.564 14.954 6.427zm87.25-1.665a5.58 5.58 0 0 1 4.38 1.863l-3.484 7.444a4.8 4.8 0 0 0-3.005-.985c-2.214 0-4.111 1.939-4.111 5.463v15.284h-8.761v-28.523h8.613v4c1.539-2.736 3.505-4.546 6.368-4.546m-50.604 9.843v19.226h-8.65v-16.12c0-3.095-1.634-4.991-4.523-4.991s-4.855 1.826-4.855 5.098v16.013h-8.666v-38.559h8.666v13.87c2.028-2.801 5.26-4.44 8.682-4.402 5.287 0 9.346 3.513 9.346 9.865m32.792 12.612v6.046a13.8 13.8 0 0 1-5.081.943c-2.388 0-4.787-.76-5.909-3.572-1.877 2.142-5.382 3.786-9.357 3.786-5.798 0-9.525-3.01-9.525-8.74 0-5.607 4.47-8.96 11.375-8.96 2.293.004 4.576.292 6.8.857v-.932c0-3.213-1.823-5.109-5.603-5.109a10.75 10.75 0 0 0-6.889 2.79l-4.745-5.462c2.831-2.603 7.428-4.542 12.73-4.542 8.171 0 13.105 3.996 13.105 11.477v9.994c0 1.071.527 1.606 1.671 1.606a6 6 0 0 0 1.444-.182zm-11.691-4.889a21 21 0 0 0-4.85-.638c-2.983 0-4.459 1.489-4.459 3.53 0 1.933 1.307 3.331 3.985 3.331 2.836 0 5.324-1.725 5.324-4.338z" clip-rule="evenodd"/></svg>