<svg xmlns="http://www.w3.org/2000/svg" width="100" height="100" fill="none" viewBox="0 0 100 100"><rect width="97.5" height="97.5" x="1.25" y="1.25" fill="url(#a)" rx="48.75"/><rect width="97.5" height="97.5" x="1.25" y="1.25" stroke="#34b7dd" stroke-width="2.5" rx="48.75"/><path fill="#fff" d="M24.097 45.24q-1.54 0-2.7-.54-1.14-.561-1.78-1.56-.64-1-.66-2.34h2.1q.02.76.36 1.4.36.62 1.02 1 .68.36 1.66.36.84 0 1.44-.28.62-.28.94-.76a2.07 2.07 0 0 0 .32-1.14q0-.76-.34-1.22a2.5 2.5 0 0 0-.92-.78 7.4 7.4 0 0 0-1.34-.56q-.741-.24-1.56-.52-1.64-.56-2.44-1.4-.8-.86-.8-2.24 0-1.18.54-2.04.56-.88 1.58-1.36 1.02-.5 2.38-.5t2.38.5 1.6 1.38q.579.88.6 2.06h-2.12a2.4 2.4 0 0 0-.3-1.06 2.1 2.1 0 0 0-.84-.84q-.561-.34-1.38-.34-.68-.02-1.22.22t-.84.7-.3 1.1.26 1.04q.28.38.8.66.519.28 1.2.52.7.22 1.54.5a8.4 8.4 0 0 1 1.84.84q.82.48 1.3 1.26.48.76.48 1.96 0 1.04-.56 1.94-.54.9-1.6 1.48-1.041.56-2.64.56M31.235 45V31h2.36l4.78 9.44 4.78-9.44h2.36v14h-2V34.5l-4.36 8.52h-1.54l-4.38-8.5V45zM47.523 45l5.14-14h2.18l5.12 14h-2.12l-4.1-11.6-4.14 11.6zm2.32-3.46.56-1.6h6.58l.54 1.6zM61.958 45V31h2v12.42h6.4V45zM72.661 45V31h2v12.42h6.4V45zM14.4 72v-2.016a78 78 0 0 0 3.668-3.052 38 38 0 0 0 3.136-3.052q1.373-1.54 2.156-2.996.784-1.485.784-2.828 0-.952-.336-1.764a2.94 2.94 0 0 0-1.064-1.316q-.699-.532-1.932-.532-1.203 0-2.016.532-.783.531-1.204 1.428-.391.867-.392 1.932h-2.688q.029-2.016.868-3.416a5.53 5.53 0 0 1 2.268-2.128q1.428-.729 3.22-.728 1.848 0 3.192.7a4.87 4.87 0 0 1 2.128 1.988q.756 1.287.756 3.164 0 1.344-.532 2.688-.532 1.316-1.456 2.576-.895 1.26-2.016 2.436a36 36 0 0 1-2.268 2.184q-1.175 1.035-2.24 1.876h9.128V72zM38.166 72.336q-2.66 0-4.592-1.26-1.905-1.288-2.94-3.556-1.008-2.296-1.008-5.32t1.008-5.292q1.035-2.296 2.94-3.556 1.904-1.288 4.564-1.288t4.536 1.288q1.905 1.26 2.912 3.556 1.036 2.268 1.036 5.292t-1.036 5.32q-1.008 2.268-2.912 3.556-1.875 1.26-4.508 1.26m-.028-2.492q1.653 0 2.912-.924 1.26-.924 1.988-2.632.729-1.709.728-4.088 0-2.38-.728-4.088t-1.988-2.604q-1.26-.924-2.912-.924a4.87 4.87 0 0 0-2.912.924q-1.287.895-2.016 2.604-.7 1.707-.7 4.088 0 2.38.7 4.088.729 1.708 2.016 2.632 1.289.924 2.912.924M57.58 72.336q-2.66 0-4.592-1.26-1.904-1.288-2.94-3.556-1.008-2.296-1.008-5.32t1.008-5.292q1.036-2.296 2.94-3.556 1.905-1.288 4.564-1.288 2.661 0 4.536 1.288 1.905 1.26 2.912 3.556 1.036 2.268 1.036 5.292T65 67.52q-1.008 2.268-2.912 3.556-1.875 1.26-4.508 1.26m-.028-2.492q1.652 0 2.912-.924t1.988-2.632q.729-1.709.728-4.088 0-2.38-.728-4.088t-1.988-2.604q-1.26-.924-2.912-.924a4.87 4.87 0 0 0-2.912.924q-1.287.895-2.016 2.604-.7 1.707-.7 4.088 0 2.38.7 4.088.729 1.708 2.016 2.632 1.289.924 2.912.924M76.994 72.336q-2.66 0-4.592-1.26-1.904-1.288-2.94-3.556-1.008-2.296-1.008-5.32t1.008-5.292q1.037-2.296 2.94-3.556 1.905-1.288 4.564-1.288 2.661 0 4.536 1.288 1.904 1.26 2.912 3.556 1.036 2.268 1.036 5.292t-1.036 5.32q-1.007 2.268-2.912 3.556-1.875 1.26-4.508 1.26m-.028-2.492q1.653 0 2.912-.924 1.26-.924 1.988-2.632t.728-4.088-.728-4.088q-.728-1.709-1.988-2.604-1.26-.924-2.912-.924a4.87 4.87 0 0 0-2.912.924q-1.287.895-2.016 2.604-.7 1.707-.7 4.088 0 2.38.7 4.088.729 1.708 2.016 2.632 1.29.924 2.912.924"/><defs><linearGradient id="a" x1="50" x2="50" y1="0" y2="100" gradientUnits="userSpaceOnUse"><stop stop-color="#34284b"/><stop offset=".5" stop-color="#555772"/><stop offset="1" stop-color="#b1855f"/></linearGradient></defs></svg>