<svg xmlns="http://www.w3.org/2000/svg" width="100" height="100" fill="none" viewBox="0 0 100 100"><rect width="97.5" height="97.5" x="1.25" y="1.25" fill="url(#a)" rx="48.75"/><rect width="97.5" height="97.5" x="1.25" y="1.25" stroke="#34b7dd" stroke-width="2.5" rx="48.75"/><path fill="#fff" d="M42.416 42.517q-1.945 0-3.522-.763-1.551-.789-2.498-2.365-.946-1.605-.946-4.075V23.801h2.629v11.54q0 1.655.552 2.733.552 1.052 1.524 1.577.999.5 2.313.5 1.34 0 2.314-.5.973-.525 1.498-1.577.552-1.077.552-2.734V23.8h2.629v11.514q0 2.47-.947 4.075-.945 1.576-2.55 2.365-1.576.762-3.548.763M59.082 42.517q-1.997 0-3.522-.71-1.524-.736-2.366-2.05-.84-1.315-.84-3.076h2.76q0 1 .472 1.84.474.814 1.34 1.314.895.474 2.156.474 1.13 0 1.92-.368.788-.369 1.208-1 .447-.656.447-1.498 0-.999-.473-1.63a3.3 3.3 0 0 0-1.21-1.025q-.76-.393-1.76-.71-.973-.314-2.05-.683-2.13-.736-3.208-1.84-1.05-1.13-1.05-2.944 0-1.551.709-2.681.736-1.157 2.076-1.788 1.341-.657 3.155-.657 1.787 0 3.102.657 1.34.658 2.102 1.814.763 1.157.789 2.708h-2.786q0-.71-.368-1.393a2.8 2.8 0 0 0-1.104-1.105q-.737-.446-1.814-.446-.894-.027-1.604.289-.71.315-1.13.92-.394.604-.394 1.446 0 .84.368 1.366.368.5 1.051.868.684.368 1.578.683a125 125 0 0 1 2.023.657q1.34.447 2.419 1.104 1.078.631 1.682 1.657.63.999.631 2.576a4.87 4.87 0 0 1-.71 2.55q-.71 1.182-2.103 1.945-1.392.736-3.496.736M25.983 74.384q-2.595 0-4.486-.946-1.858-.947-2.98-2.559-1.086-1.613-1.331-3.645h3.434q.386 1.858 1.788 3.014 1.437 1.157 3.61 1.157 1.576 0 2.733-.771a5.04 5.04 0 0 0 1.823-2.068q.63-1.332.63-2.909 0-1.718-.665-2.979a4.7 4.7 0 0 0-1.788-1.963q-1.155-.7-2.663-.7-1.858 0-3.19.876-1.331.84-1.927 2.208h-3.365l2.103-13.67h13.143v3.05h-10.48l-1.296 6.834q.84-.981 2.243-1.577 1.436-.63 3.26-.63 1.857 0 3.329.665 1.508.666 2.523 1.823a8.1 8.1 0 0 1 1.613 2.698q.56 1.543.56 3.33 0 1.823-.595 3.435a8.6 8.6 0 0 1-1.718 2.804q-1.121 1.191-2.733 1.857-1.578.666-3.575.666M48.1 74.384q-3.33 0-5.713-1.577-2.383-1.613-3.68-4.451-1.262-2.874-1.262-6.66 0-3.784 1.262-6.623 1.297-2.874 3.68-4.452Q44.77 49.01 48.1 49.01q3.294 0 5.643 1.612 2.383 1.578 3.645 4.451 1.296 2.84 1.297 6.625t-1.297 6.659q-1.261 2.838-3.645 4.45-2.349 1.578-5.643 1.578m-.035-3.12q2.068 0 3.645-1.156t2.488-3.294q.912-2.139.912-5.117 0-2.98-.912-5.117-.911-2.139-2.488-3.26-1.578-1.156-3.645-1.157-2.032 0-3.645 1.157-1.612 1.122-2.524 3.26-.876 2.137-.876 5.117 0 2.978.876 5.117.912 2.138 2.524 3.294t3.645 1.157M72.23 74.384q-3.33 0-5.713-1.577-2.383-1.613-3.68-4.451-1.262-2.874-1.262-6.66 0-3.784 1.262-6.623 1.296-2.874 3.68-4.452Q68.9 49.01 72.23 49.01q3.294 0 5.643 1.612 2.382 1.578 3.645 4.451 1.296 2.84 1.296 6.625t-1.296 6.659q-1.261 2.838-3.645 4.45-2.349 1.578-5.643 1.578m-.035-3.12q2.067 0 3.645-1.156 1.576-1.156 2.488-3.294t.912-5.117q0-2.98-.912-5.117-.911-2.139-2.488-3.26-1.578-1.156-3.645-1.157-2.032 0-3.645 1.157-1.612 1.122-2.524 3.26-.876 2.137-.876 5.117 0 2.978.876 5.117.912 2.138 2.524 3.294t3.645 1.157"/><defs><linearGradient id="a" x1="50" x2="50" y1="0" y2="100" gradientUnits="userSpaceOnUse"><stop stop-color="#883439"/><stop offset="1" stop-color="#5c1717"/></linearGradient></defs></svg>