<svg xmlns="http://www.w3.org/2000/svg" width="200" height="200" fill="none" viewBox="0 0 200 200"><g filter="url(#a)"><circle cx="100" cy="100" r="100" fill="#eb5eb6" style="fill:#eb5eb6;fill:color(display-p3 .9216 .3686 .7137);fill-opacity:1"/></g><mask id="b" width="162" height="57" x="19" y="71" maskUnits="userSpaceOnUse" style="mask-type:luminance"><path fill="#fff" d="M180.848 127.78V71.766H19.314v56.014z" style="fill:#fff;fill-opacity:1"/></mask><g mask="url(#b)"><path fill="#fff" d="M127.603 127.779c11.768-.078 22.583-2.812 30.015-8.16 10.646-7.66 13.246-18.639 9.465-28.038-1.939-4.823-5.714-9.492-11.649-13.103-7.337-4.466-17.25-6.638-27.805-6.712h-4.989c9.083.085 16.997 2.478 22.605 6.591 5.136 3.768 8.108 8.437 9.669 13.113 3.086 9.255 1.439 20.108-7.698 28.134-5.637 4.952-14.23 8.082-24.598 8.175h-5.027c8.965-.115 15.258-3.806 19.126-8.194 7.371-8.363 8.333-18.859 5.994-28.004-2.021-7.9-8.301-19.592-25.102-19.815h-4.99c6.319.024 10.232 3.543 12.511 6.524 3.182 4.162 4.616 8.774 5.442 13.276.884 4.82.971 9.699.303 14.531-.628 4.54-1.862 9.145-4.558 13.441-2.149 3.426-6.283 8.292-13.71 8.241h-5.027c2.848 0 4.547-1.888 5.538-3.175 1.681-2.182 2.574-4.574 3.3-6.915 1.826-5.892 2.355-11.933 2.355-17.91 0-6.064-.536-12.199-2.432-18.172-.717-2.256-1.6-4.556-3.219-6.661-.989-1.287-2.687-3.177-5.535-3.18h-4.989c1.502.26 1.7 2.57 1.871 3.239.569 2.228.841 4.483 1.077 6.73.631 6.005.802 12.029.802 18.044 0 6.014-.171 12.036-.803 18.041-.237 2.245-.509 4.5-1.079 6.727-.172.673-.379 2.979-1.871 3.232h-5.027c-1.492-.253-1.699-2.559-1.87-3.232-.57-2.227-.843-4.481-1.079-6.727-.631-6.005-.803-12.027-.803-18.041s.17-12.038.802-18.043c.236-2.248.508-4.503 1.077-6.731.171-.67.37-2.979 1.87-3.24h-4.989c-2.848.004-4.545 1.894-5.535 3.181-1.619 2.105-2.502 4.405-3.219 6.661-1.896 5.973-2.432 12.109-2.432 18.172 0 5.978.53 12.019 2.355 17.911.725 2.341 1.619 4.733 3.3 6.915.991 1.286 2.69 3.174 5.538 3.174h-5.027c-7.427.051-11.561-4.815-13.71-8.241-2.695-4.296-3.93-8.901-4.558-13.441a45.7 45.7 0 0 1 .303-14.53c.826-4.502 2.26-9.114 5.442-13.276 2.281-2.982 6.194-6.5 12.513-6.525h-4.99c-16.802.222-23.082 11.914-25.104 19.815-2.34 9.145-1.377 19.642 5.994 28.004 3.868 4.388 10.16 8.079 19.126 8.194h-5.027c-10.367-.093-18.96-3.223-24.598-8.175-9.138-8.026-10.784-18.879-7.697-28.134 1.56-4.676 4.532-9.345 9.668-13.113 5.61-4.113 13.524-6.506 22.607-6.591h-4.99c-10.555.074-20.468 2.246-27.805 6.712-5.934 3.611-9.71 8.28-11.649 13.103-3.78 9.4-1.181 20.378 9.465 28.038 7.433 5.348 18.248 8.082 30.016 8.16h-4.879c-13.144-.068-25.977-2.495-35.21-8.082-12.13-7.34-15.864-18.517-11.241-28.177 2.406-5.027 7.113-9.682 13.892-13.148 9.01-4.607 20.704-6.544 32.56-6.606h64.797c11.857.062 23.551 2 32.56 6.606 6.777 3.466 11.485 8.121 13.892 13.148 4.623 9.661.887 20.837-11.241 28.177-9.234 5.586-22.065 8.014-35.211 8.082h-4.878" style="fill:#fff;fill-opacity:1"/><path fill="#fff" d="M132.512 71.766c13.935.08 27.437 2.835 36.695 9.05 8.107 5.44 11.824 12.617 11.625 19.732h-86.96c-.01-6.577.142-13.167.894-19.732.236-2.065.504-4.14 1.065-6.186.182-.663.374-2.634 1.757-2.864" style="fill:#fff;fill-opacity:1"/><path fill="#eb5eb6" d="M138.509 72.068q-1.352.092-2.702.188c-.697-.23-1.465-.31-2.241-.397 2.132.108 4.229.283 6.323.536a239 239 0 0 0-7.696-.47q3.159.063 6.316.143M129.832 72.068q-1.579.091-3.158.188c-.204-.22-.403-.301-1.021-.397 1.642.112 3.231.287 4.829.536a183 183 0 0 0-6.498-.47q2.925.063 5.848.143M121.156 72.068q-1.808.09-3.614.188c.267-.22.312-.301.198-.397 1.14.102 2.271.274 3.335.536-1.758-.19-3.52-.358-5.298-.47q2.691.064 5.379.143M112.479 72.068q-2.036.09-4.07.188c.738-.22 1.026-.301 1.416-.397.637.092 1.329.3 1.84.536a95 95 0 0 0-4.099-.47q2.457.065 4.912.143zM103.801 72.068a854 854 0 0 0-4.526.188c.871-.152 1.741-.299 2.636-.397.144.119.213.229.346.536a53 53 0 0 0-2.9-.47q2.224.064 4.444.143M140.23 72.911l-3.873.337c-.095-.374-.236-.534-.733-.795 1.735.278 3.403.614 5.059 1.023a260 260 0 0 0-7.185-.86q3.367.142 6.732.296M130.011 72.911l-4.286.337c.331-.374.411-.534.373-.795 1.294.288 2.503.623 3.703 1.023a212 212 0 0 0-6.098-.86q3.154.142 6.307.296zM119.791 72.911q-2.35.167-4.699.337c.758-.374 1.059-.534 1.481-.795.865.285 1.61.64 2.347 1.023-1.659-.309-3.324-.603-5.01-.86q2.942.143 5.882.296zM109.572 72.911q-2.556.166-5.112.337c.859-.27 1.718-.538 2.587-.795.415.322.613.53.992 1.023-1.3-.301-2.604-.59-3.924-.86q2.73.144 5.457.296M151.504 74.27q-2.275.237-4.554.47c.052-.367-.084-.824-.38-1.154 1.777.43 3.477.912 5.149 1.463a340 340 0 0 0-7.711-1.214q3.748.213 7.496.434M139.894 74.27l-4.924.47c.3-.34.556-.77.613-1.154a43 43 0 0 1 3.934 1.463 297 297 0 0 0-6.738-1.214q3.558.215 7.115.434M128.282 74.27l-5.294.47a14.5 14.5 0 0 0 1.607-1.154c.986.443 1.866.937 2.716 1.463q-2.862-.636-5.762-1.214 3.366.215 6.732.434zM116.671 74.27l-5.665.47c.874-.38 1.746-.761 2.603-1.154.575.464 1.044.958 1.499 1.463a236 236 0 0 0-4.788-1.214q3.175.216 6.351.434M105.059 74.27l-6.034.47q1.791-.584 3.598-1.154c.114.487.198.975.281 1.463-1.265-.41-2.533-.817-3.812-1.214q2.985.216 5.968.434zM150.58 76.065q-2.763.297-5.528.59c.401-.468.733-.962.918-1.475a46 46 0 0 1 4.024 1.856 375 375 0 0 0-7.217-1.529q3.9.276 7.803.558M137.726 76.065q-2.927.297-5.854.59c.638-.477 1.261-.957 1.799-1.475 1.07.572 2.028 1.203 2.947 1.856a360 360 0 0 0-6.354-1.529q3.732.277 7.462.558M124.872 76.065l-6.181.59c.91-.482 1.812-.969 2.683-1.475a20 20 0 0 1 1.867 1.856 380 380 0 0 0-5.491-1.529q3.561.278 7.123.558zM112.017 76.065l-6.508.59c1.19-.49 2.381-.98 3.565-1.475.292.615.551 1.232.789 1.856a492 492 0 0 0-4.629-1.529q3.392.278 6.783.558M161.843 78.267q-3.046.35-6.096.695c.501-.577.931-1.147 1.286-1.759 1.404.693 2.72 1.421 3.978 2.202a434 434 0 0 0-7.536-1.805q4.185.332 8.368.667M147.898 78.267q-3.189.349-6.381.695c.73-.57 1.432-1.148 2.057-1.759a36 36 0 0 1 3.038 2.202q-3.374-.927-6.786-1.805zM133.951 78.267l-6.664.695a77 77 0 0 0 2.827-1.759c.779.708 1.456 1.45 2.097 2.202a467 467 0 0 0-6.035-1.805zM120.006 78.267l-6.949.695a250 250 0 0 0 3.597-1.759c.426.728.807 1.46 1.158 2.202a649 649 0 0 0-5.285-1.805zM106.06 78.267l-7.234.695 4.367-1.759c.083.734.152 1.467.218 2.202L98.878 77.6zM158.572 80.82q-3.435.394-6.87.784a38 38 0 0 0 2.377-2.002 36 36 0 0 1 2.99 2.499 471 471 0 0 0-7.057-2.042zM143.684 80.82q-3.557.394-7.112.784a67 67 0 0 0 3.035-2.002 32 32 0 0 1 2.189 2.499 531 531 0 0 0-6.419-2.042zM128.798 80.82q-3.677.394-7.355.784a188 188 0 0 0 3.694-2.002c.523.821.968 1.658 1.387 2.499a701 701 0 0 0-5.78-2.042zM113.908 80.82l-7.596.784q2.184-.995 4.352-2.002c.223.83.41 1.664.585 2.499q-2.567-1.024-5.142-2.042l7.8.76zM169.524 83.67l-7.327.86c.967-.72 1.89-1.451 2.763-2.21a35 35 0 0 1 2.803 2.75 489 489 0 0 0-7.167-2.241l8.928.84M153.845 83.67l-7.524.86a88 88 0 0 0 3.308-2.21c.783.901 1.491 1.814 2.142 2.75a546 546 0 0 0-6.644-2.241l8.718.84M138.164 83.67l-7.725.86c1.303-.727 2.589-1.461 3.854-2.21a34 34 0 0 1 1.479 2.75 684 684 0 0 0-6.116-2.241l8.508.84M122.485 83.67l-7.924.86q2.214-1.095 4.4-2.21.451 1.371.816 2.75a1370 1370 0 0 0-5.589-2.241l8.297.84M106.803 83.67l-8.121.86q2.476-1.102 4.945-2.21.085 1.376.154 2.75-2.534-1.119-5.063-2.241l8.086.84zM164.209 86.76q-3.952.463-7.905.921a101 101 0 0 0 3.645-2.376c.725.97 1.372 1.95 1.956 2.952a519 519 0 0 0-6.706-2.402zM147.886 86.76l-8.061.921q2.071-1.17 4.078-2.376a33 33 0 0 1 1.432 2.952q-3.13-1.215-6.292-2.402l8.841.905zM131.562 86.76q-4.107.462-8.216.921a326 326 0 0 0 4.512-2.376c.348.98.641 1.964.908 2.952a981 981 0 0 0-5.877-2.402zM115.24 86.76q-4.185.462-8.372.921 2.481-1.182 4.947-2.376c.147.983.271 1.968.383 2.952q-2.73-1.203-5.464-2.402zM174.55 90.047q-4.124.486-8.248.967a123 123 0 0 0 4.045-2.506 27 27 0 0 1 1.631 3.109 446 446 0 0 0-6.609-2.525zM157.735 90.047l-8.363.967a186 186 0 0 0 4.367-2.506 31 31 0 0 1 1.246 3.109 552 552 0 0 0-6.307-2.525zM140.921 90.047l-8.475.967a310 310 0 0 0 4.689-2.506c.332 1.033.616 2.067.861 3.109a763 763 0 0 0-6.006-2.525zM124.105 90.047l-8.589.967q2.519-1.245 5.011-2.506.275 1.551.475 3.109-2.846-1.267-5.703-2.525zM107.289 90.047l-8.701.967q2.669-1.251 5.332-2.506.052 1.554.09 3.109-2.702-1.261-5.401-2.525zM167.488 93.474l-8.629.998a207 207 0 0 0 4.721-2.597c.377 1.067.681 2.136.921 3.217a442 442 0 0 0-6.163-2.609zM150.329 93.474l-8.698.998q2.49-1.283 4.929-2.597.416 1.603.675 3.217a585 585 0 0 0-5.973-2.609zM133.172 93.474l-8.769.998q2.585-1.29 5.14-2.597.264 1.606.428 3.217a940 940 0 0 0-5.783-2.609zM116.014 93.474l-8.839.998q2.681-1.294 5.35-2.597.111 1.608.18 3.217-2.794-1.306-5.594-2.609zM176.919 96.994l-8.86 1.015a239 239 0 0 0 5.138-2.65c.229 1.092.381 2.18.458 3.278a341 341 0 0 0-5.858-2.655zM159.567 96.994l-8.887 1.015a327 327 0 0 0 5.236-2.65 32 32 0 0 1 .349 3.278 434 434 0 0 0-5.781-2.655zM142.219 96.994l-8.915 1.015a483 483 0 0 0 5.333-2.65 44 44 0 0 1 .242 3.278 643 643 0 0 0-5.703-2.655zM124.867 96.994l-8.942 1.015a964 964 0 0 0 5.431-2.65q.1 1.639.133 3.278-2.805-1.332-5.626-2.655zM107.519 96.994l-8.97 1.015 5.528-2.65q.018 1.639.025 3.278l-5.547-2.655z" style="fill:#eb5eb6;fill:color(display-p3 .9216 .3686 .7137);fill-opacity:1"/></g><path stroke="#fff" stroke-width="5.054" d="M66.06 48.102V61.3a3.225 3.225 0 0 0 3.226 3.226H84.38V48.102M115.543 67.049V50.625h15.094a3.225 3.225 0 0 1 3.225 3.225V67.05M109.225 53.152v-2.527H90.906v7.054h18.319v6.843H90.906v-2.527M114.699 57.68h18.319M84.39 137.949v-2.527H69.86l-2.526 6.843h17.055v3.829a3.225 3.225 0 0 1-3.225 3.225H66.07v-2.527M133.872 132.898v13.199a3.225 3.225 0 0 1-3.226 3.225h-15.093v-7.957" style="stroke:#fff;stroke-opacity:1"/><path stroke="#fff" stroke-width="5.054" d="M133.872 141.496v-2.849a3.225 3.225 0 0 0-3.226-3.225h-11.868a3.225 3.225 0 0 0-3.225 3.225v13.198M109.118 132.898v13.199a3.225 3.225 0 0 1-3.226 3.225H90.799v-7.957" style="stroke:#fff;stroke-opacity:1"/><path stroke="#fff" stroke-width="5.054" d="M109.034 141.551v-2.849a3.225 3.225 0 0 0-3.225-3.225H93.94a3.225 3.225 0 0 0-3.225 3.225V151.9" style="stroke:#fff;stroke-opacity:1"/><defs><filter id="a" width="202.25" height="202.25" x="-1.125" y="-1.125" color-interpolation-filters="sRGB" filterUnits="userSpaceOnUse"><feFlood flood-opacity="0" result="BackgroundImageFix"/><feBlend in="SourceGraphic" in2="BackgroundImageFix" result="shape"/><feColorMatrix in="SourceAlpha" result="hardAlpha" values="0 0 0 0 0 0 0 0 0 0 0 0 0 0 0 0 0 0 127 0"/><feMorphology in="SourceAlpha" operator="dilate" radius="1.5" result="effect1_innerShadow_440_2676"/><feOffset dx="1.406" dy="3.188"/><feGaussianBlur stdDeviation="1.313"/><feComposite in2="hardAlpha" k2="-1" k3="1" operator="arithmetic"/><feColorMatrix values="0 0 0 0 1 0 0 0 0 1 0 0 0 0 1 0 0 0 0.6 0"/><feBlend in2="shape" result="effect1_innerShadow_440_2676"/><feColorMatrix in="SourceAlpha" result="hardAlpha" values="0 0 0 0 0 0 0 0 0 0 0 0 0 0 0 0 0 0 127 0"/><feMorphology in="SourceAlpha" operator="dilate" radius="1.5" result="effect2_innerShadow_440_2676"/><feOffset dx="-1.406" dy="-3.188"/><feGaussianBlur stdDeviation="1.313"/><feComposite in2="hardAlpha" k2="-1" k3="1" operator="arithmetic"/><feColorMatrix values="0 0 0 0 1 0 0 0 0 1 0 0 0 0 1 0 0 0 0.4 0"/><feBlend in2="effect1_innerShadow_440_2676" result="effect2_innerShadow_440_2676"/></filter></defs></svg>