<svg xmlns="http://www.w3.org/2000/svg" width="100" height="100" fill="none" viewBox="0 0 100 100"><rect width="97.5" height="97.5" x="1.25" y="1.25" fill="url(#a)" rx="48.75"/><rect width="97.5" height="97.5" x="1.25" y="1.25" stroke="#34b7dd" stroke-width="2.5" rx="48.75"/><path fill="#fff" d="M42.944 42.288q-1.776 0-3.216-.696-1.416-.72-2.28-2.16-.864-1.464-.864-3.72V25.2h2.4v10.536q0 1.512.504 2.496.504.96 1.392 1.44.912.456 2.112.456 1.224 0 2.112-.456.888-.48 1.368-1.44.504-.984.504-2.496V25.2h2.4v10.512q0 2.256-.864 3.72a5.5 5.5 0 0 1-2.328 2.16q-1.44.696-3.24.696M58.161 42.288q-1.824 0-3.216-.648-1.392-.672-2.16-1.872t-.768-2.808h2.52q0 .912.432 1.68.432.744 1.224 1.2.816.432 1.968.432 1.032 0 1.752-.336t1.104-.912q.408-.6.408-1.368 0-.912-.432-1.488a3 3 0 0 0-1.104-.936q-.696-.36-1.608-.648-.888-.288-1.872-.624-1.944-.672-2.928-1.68-.96-1.032-.96-2.688 0-1.416.648-2.448.672-1.056 1.896-1.632 1.224-.6 2.88-.6 1.632 0 2.832.6 1.224.6 1.92 1.656t.72 2.472h-2.544q0-.648-.336-1.272a2.54 2.54 0 0 0-1.008-1.008q-.672-.408-1.656-.408-.816-.024-1.464.264a2.43 2.43 0 0 0-1.032.84q-.36.552-.36 1.32t.336 1.248q.336.456.96.792t1.44.624q.84.264 1.848.6 1.224.408 2.208 1.008a4.2 4.2 0 0 1 1.536 1.512q.576.912.576 2.352 0 1.248-.648 2.328t-1.92 1.776q-1.272.672-3.192.672M12.82 70V50.4h7.252q2.073 0 3.444.672 1.372.645 2.044 1.792.7 1.12.7 2.548 0 1.484-.672 2.492a4.45 4.45 0 0 1-1.708 1.568q-1.035.532-2.24.616l.42-.28a4.36 4.36 0 0 1 2.324.7q1.065.645 1.68 1.736.645 1.091.644 2.408 0 1.512-.756 2.744-.728 1.204-2.156 1.904-1.4.7-3.472.7zm2.8-2.324h4.34q1.848 0 2.856-.84 1.036-.868 1.036-2.436 0-1.54-1.064-2.464-1.035-.924-2.884-.924H15.62zm0-8.82h4.144q1.764 0 2.688-.812.924-.84.924-2.296 0-1.4-.924-2.212-.923-.84-2.744-.84H15.62zM38.764 70.336q-2.884 0-5.068-1.26a9.07 9.07 0 0 1-3.416-3.556q-1.232-2.295-1.232-5.32 0-2.996 1.232-5.264 1.232-2.295 3.416-3.584 2.184-1.288 5.068-1.288 2.912 0 5.096 1.288a8.8 8.8 0 0 1 3.416 3.584q1.204 2.268 1.204 5.264 0 3.025-1.204 5.32a8.8 8.8 0 0 1-3.416 3.556q-2.184 1.26-5.096 1.26m0-2.492q2.072 0 3.612-.924t2.38-2.632q.868-1.708.868-4.088t-.868-4.088q-.84-1.709-2.38-2.604-1.54-.924-3.612-.924-2.044 0-3.584.924-1.54.896-2.408 2.604-.84 1.708-.84 4.088t.84 4.088q.868 1.708 2.408 2.632t3.584.924M51.54 70V50.4h3.051l9.716 15.316h.028V50.4h2.8V70h-3.052l-9.716-15.316h-.028V70zM70.762 70V50.4h6.272q3.444 0 5.684 1.204t3.304 3.416q1.092 2.184 1.092 5.208t-1.092 5.208q-1.064 2.184-3.304 3.388Q80.478 70 77.034 70zm2.8-2.352h3.36q2.716 0 4.312-.896 1.623-.896 2.296-2.548.7-1.68.7-3.976 0-2.325-.7-4.004-.672-1.68-2.296-2.576-1.596-.896-4.312-.896h-3.36z"/><defs><linearGradient id="a" x1="50" x2="50" y1="0" y2="100" gradientUnits="userSpaceOnUse"><stop stop-color="#3d563c"/><stop offset="1" stop-color="#212b20"/></linearGradient></defs></svg>