<svg xmlns="http://www.w3.org/2000/svg" width="100" height="100" fill="none" viewBox="0 0 100 100"><rect width="97.5" height="97.5" x="1.25" y="1.25" fill="url(#a)" rx="48.75"/><rect width="97.5" height="97.5" x="1.25" y="1.25" stroke="#34b7dd" stroke-width="2.5" rx="48.75"/><path fill="#fff" d="M43.385 42.22q-1.923 0-3.483-.754-1.534-.78-2.47-2.34-.936-1.586-.936-4.029V23.71h2.6v11.413q0 1.638.546 2.704.545 1.04 1.508 1.56.987.493 2.287.493 1.326 0 2.288-.494.962-.519 1.482-1.56.546-1.065.546-2.703V23.71h2.6v11.387q0 2.444-.936 4.03a5.96 5.96 0 0 1-2.522 2.34q-1.56.753-3.51.753M59.868 42.22q-1.976 0-3.483-.702-1.508-.727-2.34-2.028-.832-1.3-.832-3.041h2.73q0 .987.468 1.82.468.805 1.326 1.3.884.467 2.131.467 1.118 0 1.898-.364t1.196-.987q.442-.651.442-1.482 0-.988-.468-1.612a3.3 3.3 0 0 0-1.196-1.014 11 11 0 0 0-1.742-.702q-.962-.312-2.027-.676-2.106-.728-3.172-1.82-1.04-1.117-1.04-2.911 0-1.534.702-2.652.728-1.144 2.054-1.768 1.325-.65 3.12-.65 1.767 0 3.067.65 1.326.651 2.08 1.794.753 1.144.78 2.678h-2.756q0-.702-.364-1.378a2.76 2.76 0 0 0-1.092-1.092q-.727-.442-1.794-.442-.883-.026-1.585.286t-1.118.91q-.39.598-.39 1.43 0 .831.364 1.352.363.494 1.04.858.675.364 1.56.675.909.287 2.001.65 1.326.442 2.392 1.092 1.065.624 1.664 1.638.624.988.624 2.548 0 1.351-.702 2.521-.703 1.17-2.08 1.924-1.378.728-3.458.728M19.55 72.238V53.494h-6.308v-2.487h15.62v2.487h-6.278v18.744zM31.518 72.238V51.007h13.405v2.487H34.552v6.794h9.463v2.426H34.55v7.037h10.372v2.487zM57.894 72.602q-3.123 0-5.429-1.365-2.274-1.395-3.518-3.852-1.243-2.487-1.243-5.763 0-3.245 1.243-5.732 1.245-2.487 3.518-3.852 2.306-1.395 5.43-1.395 3.73 0 6.065 1.79 2.336 1.788 2.973 5.034h-3.337q-.455-1.88-1.88-3.002-1.395-1.123-3.822-1.123-2.153 0-3.76 1.001-1.608 1.001-2.457 2.851-.85 1.851-.85 4.428 0 2.579.85 4.428.85 1.85 2.456 2.851 1.608 1.002 3.761 1.001 2.427 0 3.822-1.061 1.425-1.092 1.88-2.942h3.337q-.607 3.154-2.973 4.943-2.336 1.76-6.066 1.76M83.726 72.238V51.007h3.033v21.23zm-13.497 0V51.007h3.033v21.23zm2.518-9.584v-2.488h11.646v2.488z"/><defs><linearGradient id="a" x1="50" x2="50" y1="0" y2="100" gradientUnits="userSpaceOnUse"><stop stop-color="#933334"/><stop offset=".495" stop-color="#3c3e59"/><stop offset="1" stop-color="#0f3772"/></linearGradient></defs></svg>