<svg xmlns="http://www.w3.org/2000/svg" width="96" height="96" fill="none" viewBox="0 0 96 96"><mask id="a" width="96" height="96" x="0" y="0" maskUnits="userSpaceOnUse" style="mask-type:alpha"><circle cx="48.012" cy="48.012" r="47.988" fill="#d9d9d9"/></mask><g mask="url(#a)"><path fill="#24344b" d="M96 0H0v96h96z"/><path fill="#f9bd29" d="M13.117 43.717v-5.758h6.965c1.207 0 1.904-.65 1.904-1.858v-4.643h6.872v32.503h-6.872V45.574c0-1.207-.697-1.857-1.904-1.857zm30.881 20.94c-7.754 0-12.258-6.268-12.258-16.947 0-10.68 4.504-16.948 12.258-16.948 7.8 0 12.305 6.268 12.305 16.948s-4.504 16.948-12.305 16.948m0-5.757c3.436 0 5.247-3.854 5.247-11.144 0-7.336-1.811-11.237-5.247-11.237-3.39 0-5.247 3.9-5.247 11.237 0 7.29 1.857 11.144 5.247 11.144m26.369 5.758c-7.755 0-12.259-6.269-12.259-16.948s4.504-16.948 12.259-16.948c7.8 0 12.304 6.268 12.304 16.948s-4.504 16.948-12.304 16.948m0-5.758c3.436 0 5.247-3.854 5.247-11.144 0-7.336-1.811-11.237-5.247-11.237-3.39 0-5.247 3.9-5.247 11.237 0 7.29 1.857 11.144 5.247 11.144"/></g></svg>